<svg xmlns="http://www.w3.org/2000/svg" width="865.76" height="682.89" viewBox="0 0 865.76 682.89"><path d="M185,663.93s-49.1,3.4-48.25-58.45c0,0,1.91-51.64,19.72-98.17,0,0,10.17-23.27-8.91-64.12,0,0-70.58-119.74-44.83-172.51,0,0,123-235.49,302.36-245.14,0,0,204.11-27.24,318.57,20.43,0,0,80.11,20.43,26.7,134.49,0,0-77.55,114-28.61,183,0,0,116.36,150.73-38.15,300.5Z" fill="#1f3e82"/><path d="M185,663.93s-49.1,3.4-48.25-58.45c0,0,1.91-51.64,19.72-98.17,0,0,10.17-23.27-8.91-64.12,0,0-70.58-119.74-44.83-172.51,0,0,123-235.49,302.36-245.14,0,0,204.11-27.24,318.57,20.43,0,0,80.11,20.43,26.7,134.49,0,0-77.55,114-28.61,183,0,0,116.36,150.73-38.15,300.5Z" fill="#fff" opacity="0.7"/><path d="M189.19,444.83l-1.21-.1c-21.95-1.6-39.89,17.15-38.2,39.1,2.71,35.06,39.41,54.79,39.41,54.79s-8.53,40.36,9.66,52.87c0,0-1.7,3.41,46.62,7.39l144.94,10.8c94.36-4,89.82-67.65,89.82-67.65-1.14-22.16,23.63-48.11,23.63-48.11,11.13-14,0-36,0-36-29.8-47.75-23.14-140.19-23.14-140.19-4.61-33.9-45.4-33.18-45.4-33.18-29.56-4-87,3.31-87,3.31V415.57L188,444.73" fill="#ccc"/><path d="M368.25,440.29l-49.46,51.37s-15.63-20.4-60.82-37.87L315.1,428l7.87-2.48s23.39-.29,32.2,7.39Z" fill="#2f2e41"/><path d="M348.3,291.24s0,6.32,8.93,7.09a18.72,18.72,0,0,0,9.71-1.84c4-1.92,9.35-5.64,10.4-11.95a85.78,85.78,0,0,0,6-22.47S373.65,289.94,348.3,291.24Z" fill="#f9b499"/><path d="M348.3,291.24s-.66,6.38,8.93,7.09c0,0,9-.34,13-16.3C370.24,282,361.61,291.4,348.3,291.24Z" fill="#f7a48b"/><path d="M347.13,291.12a4.11,4.11,0,0,0-1.05,5.35s-4.53,4.88-.56,7.84c0,0-5.13,1.83-4.56,5.81,0,0-31.26,6.82-40.93,28.42,0,0-9.09,15.34-13.64,46.61l-4,25,7.68,27.57,20.46,1.7s8.24-3.12,15.06-13.92c0,0,21,.56,29.56,7.39l13.08,7.39,32.4-29.56s1.29-16.78,3.13-26a5.61,5.61,0,0,0-.09-2.64L399.51,367l14.21,28.42L442.14,413s10.23,8,9.1,31.83c0,0,13.65-9.75,8-25.64a20.6,20.6,0,0,0-2.63-4.89c-1-1.44-2.36-4.61-.82-10.39,0,0,2.85-6.82-2.27-17.06,0,0-17.18-48.56-32.46-60.37l-11.31-9L386.44,301a7,7,0,0,0-3.42-7.39s2.85-7.39-5.68-9.09c0,0-.41,6.61-9.35,11.38a19.23,19.23,0,0,1-12.36,2.15c-3.5-.61-7.07-2.35-7.33-6.83Z" fill="#1f3e82"/><g opacity="0.4"><path d="M373.36,302.73a.57.57,0,0,1-.25-1.08,23.27,23.27,0,0,0,9.42-8.3.57.57,0,0,1,1,.56,24.08,24.08,0,0,1-9.9,8.76A.62.62,0,0,1,373.36,302.73Z" fill="#fff"/></g><g opacity="0.4"><path d="M365.1,313.51a30.48,30.48,0,0,1-11.27-2.3.56.56,0,0,1,.41-1c20.89,8.24,31.27-8.7,31.71-9.43a.57.57,0,1,1,1,.58C386.83,301.46,379.48,313.51,365.1,313.51Z" fill="#fff"/></g><path d="M423.54,328.71c-8.11,8.53-15.65,17.92-20.53,28.7l-.51,1.21c-.77,1.58-1.22,3.28-1.85,4.93,2.66-13.54,12.42-26.18,22.89-34.84Z" opacity="0.2"/><path d="M307.42,356.73c-6.58,18.23-13.58,36.4-18,55.3-.24,1.27-.5,2.54-.76,3.81,1-10.33,4-20.38,7.26-30.22a279.64,279.64,0,0,1,11.49-28.89Z" opacity="0.2"/><path d="M332.43,355l-1.05,9.66s3.09,2.26,6.18,1.55a1.51,1.51,0,0,0,1.18-1.56C338.64,362.85,337.71,359.08,332.43,355Z" fill="#1f3e82"/><path d="M332.43,355l-1.05,9.66s3.09,2.26,6.18,1.55a1.51,1.51,0,0,0,1.18-1.56C338.64,362.85,337.71,359.08,332.43,355Z" opacity="0.2"/><path d="M310.76,349.62l6.13-20.91a95.28,95.28,0,0,0,1.9-11.2A79.65,79.65,0,0,1,323.34,297l8.78-16.59a1.13,1.13,0,0,1,2.09.2c.83,3,1.35,8.62-2.83,16,0,0-2.36,5.51-1.22,7.21,0,0,5.12-4,8,0a8.56,8.56,0,0,0,6.53,4.44,2.82,2.82,0,0,1,2.14,1.55c.42.95.42,2.34-1.28,4.11,0,0,5.59,1.55,2.79,4.54,0,0-.52,1.85-5.63,1.85,0,0-2.28,1.13-.57,2.27a3.34,3.34,0,0,1,.57,4.55,3.37,3.37,0,0,1-3.93.16,39,39,0,0,1-3.85,5.84,3.61,3.61,0,0,0-.86,2l-2.65,29.51A68.92,68.92,0,0,1,310.76,349.62Z" fill="#f9b499"/><path d="M308.11,328.71a80.66,80.66,0,0,1,5.2,12.22,25,25,0,0,1-5.2-12.22Z" opacity="0.2"/><path d="M327.89,311.82c.88-2.64,3.24-5.81,6.43-5.05a5.78,5.78,0,0,1,2.63,1.58c.44.55.95,1.11,1.45,1.63a13.54,13.54,0,0,0,5.4,3.55c-3,0-6-2.42-7.65-4.4-3.21-3.23-6.29-.22-8.26,2.69Z" fill="#f7a48b"/><path d="M329.92,317.05c1.34-2.5,4.28-3.34,6.37-1.15.25.26.47.54.7.82l-.05-.06c1.66,1.53,3.46,3.15,5.73,3.69-2.66.33-5.55-1.69-7.18-3.66s-3.83-1.13-5.57.36Z" fill="#f7a48b"/><path d="M330.73,324.89a2.7,2.7,0,0,1,3.15-2.72,6.45,6.45,0,0,1,3.5,2.67,10.75,10.75,0,0,1,1.36,2.49c-.72-.62-1.37-1.28-2-1.9-2-1.91-4.1-3.75-6-.54Z" fill="#f7a48b"/><path d="M325.61,425.51c2.54-4.48,3.29-9.78,3.3-14.85.24-5.22-2.48-10.64.57-15.55,2.15-4.63,4.35-10.68,6.19-15.9l1.88-5.43a124,124,0,0,1-7.14,21.93,10.92,10.92,0,0,0-1.14,7.16c1.23,7.56.8,16.14-3.66,22.64Z" opacity="0.2"/><path d="M329.36,411.91c8.91-2.27,18.62-.25,26.34,4.6,5.63,3.74,11.2,7.7,17.05,11.09a41.74,41.74,0,0,0,6,3.06,28.43,28.43,0,0,1-3.21-1.13,82.8,82.8,0,0,1-9.06-4.72q-4.39-2.61-8.61-5.48a48.79,48.79,0,0,0-5.72-3.52,37.85,37.85,0,0,0-22.83-3.9Z" opacity="0.2"/><path d="M258,453.79s40.36,12.51,60.82,37.87l38.87-40.37-57.83,7.29Z" opacity="0.2"/><polygon points="363.87 444.83 292.64 437.44 296.91 454.21 361.55 447.24 363.87 444.83" fill="#e6e6e6"/><polygon points="196.58 445.97 198.62 451.29 299.83 458.58 357.66 451.29 361.55 447.24 298.05 453.64 196.58 445.97" fill="#1f3e82"/><polygon points="196.58 445.97 198.62 451.29 299.83 458.58 357.66 451.29 361.55 447.24 298.05 453.64 196.58 445.97" fill="#fff" opacity="0.4"/><path d="M485.91,540.9c0-16.49,13.27-41.56,13.27-41.56C484,494.72,451.39,530,451.39,530c-9.6,42.75-32.54,64.81-42.27,72.5a16.74,16.74,0,0,1-9.59,3.61c-33.65,1.6-135.26-5.79-135.26-5.79-34.47-2.6-50.93-5.12-58.69-6.78a19.45,19.45,0,0,1-12.76-9.2c-10-17.26-3.63-45.68-3.63-45.68L182.06,534l2,39.26c3.41,31.26,23.87,28.42,23.87,28.42-10.8,21.6-4,60.82-4,60.82H214.2c-5.11-26.15,3.41-59.68,3.41-59.68,12.51,1.7,46.61,4,46.61,4-9.38,26.44-11.93,56.85-11.93,56.85l9.66.57A155.4,155.4,0,0,1,273.32,608c96.86,1.43,128.51,2.57,136,3.35a4.09,4.09,0,0,0,2.31-.42,24.37,24.37,0,0,0,3.76-2.36,89.55,89.55,0,0,0,34.1-5.68c12.51,17,21.56,59.29,21.56,59.29h9.7c-5.11-32.8-23-63.4-23-63.4C478,585.54,485.91,540.9,485.91,540.9Zm-58,57.74c20.46-23,34.11-73.09,34.11-73.09l18.75-11.94L474,550C467.72,603.42,427.93,598.64,427.93,598.64Z" fill="#2f2e41"/><path d="M451.39,466.7c10.64-7.87,24.72-12.91,37.95-9.69a30.49,30.49,0,0,1,11.92,6,35.35,35.35,0,0,0-12.12-5.15c-13.11-2.69-26.56,2.15-37.75,8.83Z" fill="#b3b3b3"/><path d="M398.81,547.85c3.35-4.19,7.9-7.24,12.29-10.24a185.3,185.3,0,0,1,21-11.67c2.4-1.11,4.79-2.37,7.07-3.7,11.38-6.76,22.77-14.1,31.44-24.24a101.74,101.74,0,0,1,11.47-11.27A45.05,45.05,0,0,1,494,479.21c3.07-1.22,6.74-1.81,9.76-.17-2.75-1.34-5.93-.89-8.7.13-4.65,1.83-8.69,4.88-12.46,8.11a113.22,113.22,0,0,0-11.19,11.36c-8.66,10.3-20.12,17.81-31.67,24.49-2.29,1.33-4.74,2.6-7.15,3.69a203.25,203.25,0,0,0-21.18,11.25c-4.48,2.85-9.07,5.76-12.59,9.78Z" fill="#b3b3b3"/><path d="M388.14,540.9c-2.69,9.85,11.9,13.39,19,14.68,11.61,1.95,23.42,2,35.17,2.09-12.73,1-25.72,1.11-38.28-1.6-5.37-1.36-11.21-3.1-14.8-7.63a7.51,7.51,0,0,1-1.13-7.54Z" fill="#b3b3b3"/><path d="M192.6,536.92c2.17-3.33,5.57-5.69,9-7.62A54.31,54.31,0,0,1,222,523.52c1.58-.08,3.15-.2,4.72-.24-1.55.3-3.1.52-4.64.79-10.11,1.94-22.24,5.1-29.47,12.85Z" fill="#b3b3b3"/><path d="M211.36,534.64C265.41,536,320,538.06,374,540.9c-54-1.31-108.67-3.42-162.66-6.26Z" fill="#b3b3b3"/><rect x="550.14" y="505.19" width="4.55" height="173.17" transform="translate(-253.19 512.03) rotate(-41.32)" fill="#ccc"/><polygon points="503.75 656.01 617.78 526.12 622.81 528.96 508.81 656.01 503.75 656.01" fill="#ccc"/><polygon points="541.93 656.01 571.42 526.12 576.9 526.12 546.57 656.01 541.93 656.01" fill="#ccc"/><path d="M516.23,454.5h40.9a.67.67,0,0,1,.67.67c0,5.45-.38,42.38-9.07,47.64H525.26s-4.11-1.7-5.24-10.23c0,0-10.61-2.87-10.14-25.88,0,0,.47-8.22,6.16-7.66l-.48-3.79A.67.67,0,0,1,516.23,454.5Z" fill="#1f3e82"/><path d="M539.34,389.13s-1.66,9,5.65,13.51a6.75,6.75,0,0,1,1.56,1.25c2.17,2.41,5.93,9.56-11,20.48,0,0-18,8.12,0,25.95,0,0-1.14-4.92,2.48-5.49,0,0,4.18-1.13,1.34-5.11,0,0-5.68-8,4.55-9.67l13.7-1.8a18.28,18.28,0,0,0,7-2.34c3.41-2,7.08-5.74,5.61-12.08a14.63,14.63,0,0,0-3.43-6.46A34.08,34.08,0,0,0,549,397.09S541.62,394.81,539.34,389.13Z" fill="#e6e6e6"/><path d="M620.63,489.74v6.79a6.29,6.29,0,0,1-6.29,6.28H569.5a6.28,6.28,0,0,1-6.28-6.28v-6.79Z" fill="#1f3e82"/><path d="M604.16,489.74h-36c.11-5.67,3-11.92,8.31-16.75,8.76-8,20.78-9,26.84-2.33C607.64,475.45,607.72,483,604.16,489.74Z" fill="#2f2e41"/><path d="M620,479.39h0a22.22,22.22,0,0,1-2.6,10.34H604.16s7.78-13.91-3.79-21.45c0,0,13.58-4.22,18.4,5a12.16,12.16,0,0,1,.72,1.67A16.49,16.49,0,0,1,620,479.39Z" fill="#2f2e41"/><path d="M604.11,467.53S616,475,608.93,489.74h-4.77s7.78-13.34-3.79-21.45A11.56,11.56,0,0,1,604.11,467.53Z"/><circle cx="591.92" cy="472.4" r="2.56" fill="#fff" opacity="0.2"/><circle cx="600.45" cy="483.2" r="2.56" fill="#fff" opacity="0.2"/><path d="M579.13,488.32a2.58,2.58,0,0,1-.43,1.42h-4.25a2.58,2.58,0,0,1-.43-1.42,2.56,2.56,0,1,1,5.11,0Z" fill="#fff" opacity="0.2"/><path d="M620,479.39h0a3.16,3.16,0,0,1-.81.11,3.13,3.13,0,0,1-.44-6.22,12.16,12.16,0,0,1,.72,1.67A16.49,16.49,0,0,1,620,479.39Z" fill="#fff" opacity="0.2"/><g opacity="0.2"><path d="M517.74,484.91a.84.84,0,0,1-.82-.64,95.44,95.44,0,0,1-2.67-18,.85.85,0,0,1,1.7-.07,93,93,0,0,0,2.62,17.6.86.86,0,0,1-.61,1.05A.83.83,0,0,1,517.74,484.91Z"/></g><path d="M315.38,555.11s10.23-2.1,16.2-24.64l-12.5,1A151.89,151.89,0,0,0,315.38,555.11Z" fill="#2f2e41"/><path d="M315.38,555.11s10.23-2.1,16.2-24.64l-12.5,1A151.89,151.89,0,0,0,315.38,555.11Z" opacity="0.2"/><path d="M395.52,500.66s30.71-22.86,42.64-37.07" fill="none" stroke="red" stroke-miterlimit="10"/><path d="M732.66,167.79c-3.4,9.09-9.92,19.45-21.79,30.12-7.83,7.05-18,14.23-31.14,21.26,0,0-14.52,9-38.6,12.49a130.5,130.5,0,0,1-22,1.32,138.89,138.89,0,0,1-26.37-3.16s-25.51-4.85-48.33-2.52a71.64,71.64,0,0,0-17.55,3.77s-1.27.38-3.53,1c-1.84.49-4.34,1.13-7.35,1.83l-1.11.25c-2.54.58-5.4,1.2-8.5,1.81l-3.49.66a212.08,212.08,0,0,1-26.16,3.22,121.68,121.68,0,0,1-16.34-.14l-.57,0-.66-.07c-8.1-.77-15.53-2.63-21.27-6.1a22.89,22.89,0,0,1-11.11-15.28s-14.79-28.56,5.11-67.78c0,0,38.12-76,156.05-79.22,0,0,58.81-6.61,57.11,20.1,0,0-8.43,22.12,19.95,18.74,0,0,58.49-10.21,68.72,26.17C733.74,136.18,739.57,149.38,732.66,167.79Z" fill="#fff" opacity="0.7"/><path d="M391.84,232.22s4.9-12.12,13.85-5.51a15.55,15.55,0,0,1,4.17,4.74c4,6.82,15,28.29-6.48,26.63,0,0-8.42-10.49-10.69-20.15Z" fill="#2f2e41"/><path d="M391.84,232.22s4.9-12.12,13.85-5.51a15.55,15.55,0,0,1,4.17,4.74c4,6.82,15,28.29-6.48,26.63,0,0-8.42-10.49-10.69-20.15Z" opacity="0.2"/><ellipse cx="359.01" cy="259.84" rx="34.27" ry="22.97" transform="translate(-52.9 423.35) rotate(-57.55)" fill="#f9b499"/><path d="M339.62,247.52s-9.46-15.28,4.75-24.94c0,0,9.67-9.67,23.88-2.28,0,0,6.25-18.19,18.75-4,0,0,3.41,4,5.69,21.6,0,0,2.05,9.76,12.52,22.45a44.75,44.75,0,0,1,4.07,5.77c4.86,8.23,15.09,28.6,10.69,47.94,0,0,0-23.87-9.09-38.08,0,0,8.52,26.72-1.14,41.5,0,0-17.62-11.94-23.3-16.49,0,0,1.13-4-3.42-7.39,0,0,2.85-7.39-5.68-9.09a94.85,94.85,0,0,0,6-22.47s-3.71,4.28-3.14-11.07c0,0,0-8.53-6.82-8.53,0,0-6.82-1.13-8.52-6.25C364.84,236.22,356.48,223,339.62,247.52Z" fill="#2f2e41"/><ellipse cx="386.87" cy="267.45" rx="9.38" ry="6.76" transform="translate(-59.26 416.33) rotate(-53.11)" fill="#f9b499"/><path d="M391.84,232.22a60.73,60.73,0,0,0,9.53,22.88c.65,1,1.37,2,2,3-6.72-6.73-11.53-16.22-11.54-25.86Z" fill="#1f3e82"/><polygon points="167.02 359 195.44 445.97 296.91 453.64 275.59 368.1 167.02 359" fill="#1f3e82"/><polygon points="167.02 359 195.44 445.97 296.91 453.64 275.59 368.1 167.02 359" fill="#fff" opacity="0.3"/><path d="M318.79,491.66l49.46-51.37,32.4-29.56s24.39-20.47,44,5.11c0,0,17.92,25-4.81,56.28,0,0-21.6,12.5-36.95,31.26l-35.24,10.8-32.62-17.29s-16.84,22.41-19.68,58.22c0,0-62.52-18.19-88.67-31.83l-33.54-16.49s-31.26-8.52-19.33-47.18c0,0,2.85-26.15,44.91-16.48,0,0,33.54,4.55,72.19,25.58C290.94,468.71,312,481.08,318.79,491.66Z" fill="#2f2e41"/><path d="M335.06,496.89a254.77,254.77,0,0,1-41.14-14.19A438,438,0,0,1,242.38,456c-4.13-2.52-8.24-5.07-12.26-7.76,4.16,2.48,8.32,4.93,12.55,7.28,29.44,16.53,59.93,31.76,92.39,41.37Z" opacity="0.2"/><path d="M258,457.91c8.62,3.08,16.26,10.21,21.5,17.59-.87-.8-1.68-1.63-2.51-2.45C271.14,467.4,265,462,258,457.91Z" opacity="0.2"/><path d="M408.37,408.78c-1.61,1.61-5.36,4.63-8.94,1.92a1.64,1.64,0,0,1,.19-2.69,33,33,0,0,0,6.14-4.67l4.84-6.25s9.37-9.67,15.63-1.71c0,0,7.17-1.71,8.41,4.26,0,0,6.93,1.42,5.8,6.54,0,0,4.23,3.56.12,10.59,0,0-7.51,9.87-12.63,7.6,0,0-5.43,5.68-9.82,1.14,0,0-3.09,4.09-6,1.76,0,0-2-.61-.74-6.3,0,0-7.29-2.28-3.31-6.83l2.72-3.15a1.64,1.64,0,0,0-.47-2.51h0A1.61,1.61,0,0,0,408.37,408.78Z" fill="#f9b499"/><path d="M387.67,530.1s7.86-22.17,15.25-26.72c0,0-17.35-9.72-31.41,2.81l-36.45-9.3s-9.95,12.29-15.66,35C319.4,531.86,371.85,525,387.67,530.1Z" fill="#f9b499"/><path d="M410.29,408.48a8.46,8.46,0,0,1,3.43-5.14,8.46,8.46,0,0,1-3.43,5.14Z" fill="#f7a48b"/><path d="M411.35,421a66.85,66.85,0,0,1,9.23-15.06A67.08,67.08,0,0,1,411.35,421Z" fill="#f7a48b"/><path d="M419.4,422.66a62.6,62.6,0,0,1,9.42-14.18,61.83,61.83,0,0,1-9.42,14.18Z" fill="#f7a48b"/><path d="M427.93,424.37a42.22,42.22,0,0,1,7.39-11.94,42,42,0,0,1-7.39,11.94Z" fill="#f7a48b"/><path d="M424,665.1h9.14a204.63,204.63,0,0,0-19.81-55.56c-3.11.28-8.61.42-8.61.42C411.53,616.78,424,665.1,424,665.1Z" fill="#2f2e41"/><rect x="483.64" y="502.81" width="153.48" height="26.15" fill="#b3b3b3"/><path d="M506.94,237.36l-38.65,8-9.2-4.35s.26-.51.75-1.35a120.31,120.31,0,0,0,16.91.19,212.08,212.08,0,0,0,26.16-3.22l3.49-.66C506.57,236.37,506.75,236.84,506.94,237.36Z" fill="none"/><path d="M732.66,167.79c-3.4,9.09-9.92,19.45-21.79,30.12l-21.59-35.12,22.86-26.61Z" fill="#1f3e82"/><path d="M732.66,167.79c-3.4,9.09-9.92,19.45-21.79,30.12l-21.59-35.12,22.86-26.61Z" fill="#fff" opacity="0.4"/><g opacity="0.3"><path d="M702.18,184.34h-.12a.58.58,0,0,1-.44-.68l9.68-45a.57.57,0,0,1,1.12.23l-9.69,45A.56.56,0,0,1,702.18,184.34Z" fill="#fff"/></g><path d="M710.87,197.91c-7.83,7.05-18,14.23-31.14,21.26,0,0-14.52,9-38.6,12.49a130.5,130.5,0,0,1-22,1.32l2-46.81,47.22-57.38Z" fill="#1f3e82"/><path d="M710.87,197.91c-7.83,7.05-18,14.23-31.14,21.26,0,0-14.52,9-38.6,12.49a130.5,130.5,0,0,1-22,1.32l2-46.81,47.22-57.38Z" fill="#fff" opacity="0.3"/><g opacity="0.3"><path d="M641,228a.39.39,0,0,1-.15,0,.55.55,0,0,1-.39-.7l27.13-95.49a.57.57,0,0,1,1.1.31L641.5,227.56A.57.57,0,0,1,641,228Z" fill="#fff"/><path d="M679.74,169.15a.58.58,0,0,1-.54-.39l-1.84-5.55,6.15-3.72a.57.57,0,0,1,.78.19.58.58,0,0,1-.19.78l-5.38,3.25,1.56,4.69a.57.57,0,0,1-.36.72Z" fill="#fff"/><path d="M678,180.15a.59.59,0,0,1-.54-.38l-2.16-6,9.79-3.48,2,4.78a.57.57,0,1,1-1,.45l-1.62-3.8-7.71,2.74,1.77,4.94a.57.57,0,0,1-.34.73A.63.63,0,0,1,678,180.15Z" fill="#fff"/><path d="M679.73,158.92a.58.58,0,0,1-.54-.38l-1.69-5a.57.57,0,1,1,1.08-.36l1.69,5a.57.57,0,0,1-.54.75Z" fill="#fff"/><path d="M657.15,213.31a.57.57,0,0,1-.54-.4l-2-6.62,14.14-4.43,2,5.61a.57.57,0,0,1-1.08.37L668,203.27,656,207l1.68,5.53a.56.56,0,0,1-.37.71A.51.51,0,0,1,657.15,213.31Z" fill="#fff"/><path d="M652.88,220.58a.6.6,0,0,1-.52-.33.57.57,0,0,1,.28-.76L675,209a.57.57,0,1,1,.49,1l-22.32,10.5A.53.53,0,0,1,652.88,220.58Z" fill="#fff"/><path d="M665,223.12a.56.56,0,0,1-.51-.34L661.4,216a.57.57,0,0,1,1-.47l3.09,6.79a.57.57,0,0,1-.28.75A.53.53,0,0,1,665,223.12Z" fill="#fff"/></g><polygon points="610.54 103.47 616.08 91.27 616.08 104.57 610.54 103.47" fill="#2f2e41"/><polygon points="610.54 103.47 616.08 91.27 616.08 104.57 610.54 103.47" opacity="0.2"/><path d="M625.68,189h-2.44c-5.35-5.11-5.45-19.66-5.45-19.66l-4-.23c-4.55-17.06,0-55.71,0-55.71l1.06.46a.82.82,0,0,0,1.13-.59l1.65-7.77a.64.64,0,0,0-.5-.75l-6.93-1.38a1,1,0,0,0-1.18.76l-1.65,7.3a.53.53,0,0,0,.44.63l1.43.2c-5.12,23.31-21,52.87-21,52.87l-4-.57c-1.71,5.68-10.23,14.78-10.23,14.78l-2.77-1.14c-1.06,5.12-10.92,14.21-10.92,14.21l5.16,9.1,63.43-2.42C625.27,195,625.68,189,625.68,189ZM605.28,147l1,22.75A37.67,37.67,0,0,1,596,168.11ZM587.2,183.77l6.14-10.64,14.21,2.27,1.52,13.15C594.66,186.36,587.2,183.77,587.2,183.77Z" fill="#2f2e41"/><path d="M476.75,239.81c-14.54.78-29.1-.47-38.84-6.36-.64-4.66-1.94-17.69,3.66-17.69,0,0-4.54-14.21,9.1-16.49,0,0,12.42-1.7,23.26,0Z" fill="#1f3e82"/><g opacity="0.2"><path d="M443.85,234.52a.58.58,0,0,1-.57-.51l-1.7-14.78a.56.56,0,0,1,.5-.63.58.58,0,0,1,.63.5l1.7,14.78a.57.57,0,0,1-.5.63Z"/></g><g opacity="0.2"><path d="M443.85,216.6a.5.5,0,0,1-.27-.07.57.57,0,0,1-.24-.76c.13-.23,3.24-5.71,22.71-4.56a.57.57,0,0,1,.53.6.58.58,0,0,1-.6.54c-18.53-1.09-21.61,3.91-21.64,4A.58.58,0,0,1,443.85,216.6Z"/></g><g opacity="0.2"><path d="M454.43,230.39a1.41,1.41,0,0,1-1.4-1.52l1.33-17a.58.58,0,0,1,.62-.52.57.57,0,0,1,.52.61l-1.34,17a.28.28,0,0,0,.08.22.29.29,0,0,0,.23.07l9.32-1.4a.32.32,0,0,0,.2-.13.27.27,0,0,0,0-.23l-5.35-15.4a.56.56,0,0,1,.35-.72.57.57,0,0,1,.72.35l5.35,15.4A1.39,1.39,0,0,1,464,229l-9.32,1.4Z"/></g><path d="M491.62,216.52l0,0a.66.66,0,0,1-.27.06.56.56,0,0,1-.31-1C491.22,215.88,491.42,216.2,491.62,216.52Z" fill="#b3b3b3"/><path d="M544.44,227.3a71.64,71.64,0,0,0-17.55,3.77s-10.14,3-24,5.52c-2.31-5.3-6.39-12.36-11.29-20.07h0c-.2-.32-.4-.64-.61-1-2.5-3.9-5.19-8-7.95-12l-.55-.81c-1.82-2.66-3.66-5.32-5.5-7.94-.21-.32-.44-.63-.66-.95-2-2.78-3.9-5.52-5.79-8.15l-.7-1c-2.22-3.08-4.36-6-6.34-8.71l-.71-1c-2.32-3.15-4.41-6-6.15-8.28-.24-.33-.48-.64-.71-.94-1.55-2.07-2.77-3.69-3.56-4.72a2.44,2.44,0,0,1-.14-2.76l2.53-4.19a.38.38,0,0,0,0-.45l-.76-.79-.79-.84-4.57-4.83a1.49,1.49,0,0,1-.17-1.84c5.9-9.31,12.22-12.08,15.43-12.9a3.83,3.83,0,0,1,3.72,1.08c.91,1,2,2.25,2.92,3.33.28.32.53.63.75.9l.62.74a.55.55,0,0,0,.8.08,8.26,8.26,0,0,1,3.08-1.54,4.11,4.11,0,0,1,3.85.92l5.37,4.86,1,.87L495,152l1,.91,8.64,7.82.55.5.42.38a89.94,89.94,0,0,1,10.62,12c.25.33.5.66.74,1,2.74,3.73,5.34,7.7,7.77,11.74q.32.51.6,1c2.56,4.3,4.92,8.67,7.08,12.94l.52,1C538.18,211.66,542.1,221.23,544.44,227.3Z" fill="#ccc"/><path d="M471.27,137.81a.69.69,0,0,1-.17.1c-9.58,3.36-17,14.77-17,14.89l-.09.11-.79-.84c.85-1.3,7.9-11.74,17.33-15.16C470.8,137.23,471.05,137.54,471.27,137.81Z" fill="#b3b3b3"/><path d="M486,143.74a.5.5,0,0,1-.34.18c-18.06,2.57-28.67,22.46-28.78,22.66a.42.42,0,0,1-.17.18c-.24-.33-.48-.64-.71-.94,1.26-2.27,11.75-20.21,29-22.95Z" fill="#b3b3b3"/><path d="M496.05,152.87a.58.58,0,0,1-.4.19c-20.4.94-31.85,22.53-32,22.75a.52.52,0,0,1-.17.19l-.71-1c1.34-2.41,12.71-21.83,32.23-23.08Z" fill="#b3b3b3"/><path d="M505.66,161.57a.57.57,0,0,1-.34.18c-23.86,3.33-34.48,23.53-34.59,23.73a.55.55,0,0,1-.17.2l-.7-1c1.32-2.37,12.16-20.63,34.83-24l.55.5Z" fill="#b3b3b3"/><path d="M517,174.57a.64.64,0,0,1-.3.11c-22.73,1.51-39.44,19.83-39.61,20a.43.43,0,0,1-.1.09c-.21-.32-.44-.63-.66-.95,1.35-1.44,17.79-18.61,39.93-20.26C516.53,173.9,516.78,174.23,517,174.57Z" fill="#b3b3b3"/><path d="M525.39,187.33a.48.48,0,0,1-.21.07c-.18,0-18.44,2.36-41.87,16.06a.47.47,0,0,1-.25.07l-.55-.81a.51.51,0,0,1,.22-.24c22.15-13,39.77-15.84,42.06-16.17Q525.11,186.82,525.39,187.33Z" fill="#b3b3b3"/><path d="M533,201.31a.48.48,0,0,1-.18.06c-16.8,2-40.17,14.6-41.19,15.15h0c-.2-.32-.4-.64-.61-1l0,0c.25-.14,24.14-13.11,41.43-15.27Z" fill="#b3b3b3"/><path d="M520.41,232.83a.58.58,0,0,1-.52-.34c-4.46-10-5.41-17-2.81-21a6.48,6.48,0,0,1,5.23-2.89.57.57,0,0,1,.56.58.6.6,0,0,1-.58.56,5.3,5.3,0,0,0-4.27,2.4c-1.62,2.46-2.43,7.89,2.91,19.84a.56.56,0,0,1-.29.75A.59.59,0,0,1,520.41,232.83Z" fill="#b3b3b3"/><path d="M516,233.87l-1.11.25c-5.1-13.54-10.68-12.71-10.74-12.7a.57.57,0,0,1-.66-.46.58.58,0,0,1,.46-.66C504.25,220.25,510.56,219.3,516,233.87Z" fill="#b3b3b3"/><path d="M641.13,231.66a135.43,135.43,0,0,1-48.36-1.84s-25.51-4.85-48.33-2.52a71.64,71.64,0,0,0-17.55,3.77s-1.27.38-3.53,1l-.5-9.46h1.42l-1.42-13.36h1.42l-.71-12.81h1.54l-.55-12.48a61.58,61.58,0,0,1,21.6-5.69L557.86,191l.83.89.55.6h5.68l2.56,4,1-.16c7.18-1.09,49.89-7,62.63,4.55h5l1,13.3h2.12S641.18,225.35,641.13,231.66Z" fill="#1f3e82"/><g opacity="0.2"><path d="M526.27,223.15a.58.58,0,0,1-.57-.57.57.57,0,0,1,.56-.57c.81,0,81-.66,108.42-8.5a.57.57,0,1,1,.31,1.09c-27.6,7.89-107.91,8.54-108.72,8.55Z"/><path d="M526.27,209.79a.58.58,0,0,1-.57-.54.57.57,0,0,1,.54-.6c.26,0,26.27-1.45,40.28-4.25a.56.56,0,0,1,.66.45.55.55,0,0,1-.44.66c-14.09,2.82-40.18,4.26-40.44,4.28Z"/><path d="M558.69,191.85a.72.72,0,0,1-.24.14c-11.1,2.93-31.94,4.26-32.15,4.28h0a.57.57,0,0,1,0-1.14c.21,0,20.58-1.31,31.63-4.17Z"/><path d="M630.14,201.81c-15.37,3.57-37.43,4.36-48.46,4.53l-1.42,0c-1.59,0-2.88,0-3.8,0h-1.59a.54.54,0,0,1-.45-.24l-9.67-13.07a.54.54,0,0,1,0-.62h.2l2.56,4,1-.16,6.65,9c3.31,0,34.74.1,54.72-4.53a.57.57,0,0,1,.68.42A.56.56,0,0,1,630.14,201.81Z"/><path d="M591.59,220.58a.58.58,0,0,1-.45-.22l-11-14.2a.58.58,0,0,1,.1-.8.57.57,0,0,1,.8.1l11,14.2a.56.56,0,0,1-.1.8A.54.54,0,0,1,591.59,220.58Z"/><path d="M609.26,228.26a.57.57,0,0,1-.55-.41,2.83,2.83,0,0,0-1.43-1.89,5.45,5.45,0,0,0-3.67-.1.57.57,0,0,1-.37-1.07,6.47,6.47,0,0,1,4.56.16,4,4,0,0,1,2,2.59.57.57,0,0,1-.4.7A.39.39,0,0,1,609.26,228.26Z"/><path d="M615.45,228.26h-.09a.57.57,0,0,1-.47-.65c0-.19.74-4.46,4-4.46,0,0,3.89,0,4.24,4.5a.57.57,0,0,1-1.14.09c-.27-3.42-3-3.46-3.1-3.46-2.33,0-2.9,3.47-2.91,3.5A.56.56,0,0,1,615.45,228.26Z"/><path d="M636.3,232.83a.57.57,0,0,1-.57-.56c-.12-5.45-1.45-7.65-2.55-8.53a2.55,2.55,0,0,0-1.92-.61c-3.65,1-2.14,7.78-2.12,7.85a.57.57,0,1,1-1.11.25c-.07-.32-1.77-7.94,3-9.2a3.54,3.54,0,0,1,2.85.8c1.9,1.48,2.91,4.65,3,9.42a.57.57,0,0,1-.56.58Z"/><path d="M529.23,223.15a.56.56,0,0,1-.56-.48c0-.21-.85-5.16,1.19-7.14a3.15,3.15,0,0,1,2.86-.76,2.05,2.05,0,0,1,1.48.31c1.34.82,2.21,3,2.58,6.59a.57.57,0,1,1-1.13.11c-.43-4.1-1.44-5.34-2-5.71a.93.93,0,0,0-.72-.18.61.61,0,0,1-.3,0,2.06,2.06,0,0,0-2,.43c-1.34,1.3-1.08,4.88-.87,6.14a.58.58,0,0,1-.47.66Z"/><path d="M541.21,222.89a.57.57,0,0,1-.55-.44c-.07-.3-1.7-7.38,2.88-8.86a2.56,2.56,0,0,1,1.13-.11c1.42.19,4,1.55,5.4,8.51a.57.57,0,1,1-1.12.22c-1.28-6.5-3.53-7.48-4.43-7.6a1.36,1.36,0,0,0-.63.06c-3.58,1.16-2.14,7.46-2.13,7.52a.55.55,0,0,1-.42.68Z"/><path d="M554,222.52a.57.57,0,0,1-.57-.52c0-.37-.67-9,4.14-9.65a2.68,2.68,0,0,1,2,.32c1.92,1.05,3.4,4,4.38,8.81a.57.57,0,1,1-1.11.23c-1.19-5.76-2.87-7.49-3.77-8a1.62,1.62,0,0,0-1.2-.26.24.24,0,0,1-.12,0c-3.79.49-3.2,8.36-3.19,8.44a.57.57,0,0,1-.53.61Z"/><path d="M569.16,221.91a.57.57,0,0,1-.55-.43c-.06-.22-1.37-5.59.94-8.08a4.53,4.53,0,0,1,4.33-1.12.57.57,0,0,1,.46.66.55.55,0,0,1-.65.46,3.5,3.5,0,0,0-3.31.77c-1.89,2-.68,7-.67,7a.57.57,0,0,1-.41.69Z"/><path d="M527.6,209.71a.56.56,0,0,1-.54-.39c-.07-.21-1.63-5.17,0-7.67a3.16,3.16,0,0,1,2.47-1.41,2.9,2.9,0,0,1,2.19.65c1.57,1.21,2.46,3.84,2.64,7.81a.57.57,0,1,1-1.13.05c-.21-4.51-1.32-6.27-2.21-7a1.8,1.8,0,0,0-1.29-.43h-.07a2,2,0,0,0-1.65.91c-1.14,1.7-.31,5.4.1,6.69a.57.57,0,0,1-.37.71Z"/><path d="M538.34,209a.57.57,0,0,1-.56-.49c0-.32-1-7.85,2.9-9.44a.57.57,0,0,1,.43,1.05c-2.59,1-2.47,6.3-2.2,8.23a.57.57,0,0,1-.49.64Z"/><path d="M545.92,208.29a.56.56,0,0,1-.56-.49l-.72-4.75a.57.57,0,0,1,.48-.65.57.57,0,0,1,.64.48l.72,4.76a.56.56,0,0,1-.48.64Z"/><path d="M551.23,207.74a.57.57,0,0,1-.56-.46l-.59-3.18a.56.56,0,1,1,1.11-.2l.6,3.17a.58.58,0,0,1-.46.67Z"/><path d="M527.4,189.61a.58.58,0,0,1-.56-.48l-.51-3.29a.57.57,0,0,1,.47-.65.57.57,0,0,1,.65.48L528,189a.57.57,0,0,1-.48.65Z"/><path d="M532.74,188a.57.57,0,0,1-.55-.44l-.75-3.19a.57.57,0,0,1,1.11-.26l.74,3.19a.56.56,0,0,1-.42.68Z"/><path d="M538.21,187.41a.56.56,0,0,1-.56-.49l-.58-4a.57.57,0,0,1,.49-.64.56.56,0,0,1,.64.48l.57,4a.57.57,0,0,1-.48.65Z"/><path d="M544.08,184.78a.58.58,0,0,1-.55-.41l-.75-2.56a.56.56,0,0,1,.38-.7.57.57,0,0,1,.71.38l.75,2.56a.57.57,0,0,1-.38.71Z"/></g><path d="M506.4,235.93l-3.49.66a212.08,212.08,0,0,1-26.16,3.22,120.31,120.31,0,0,1-16.91-.19c2-3.38,7.76-12.09,15.9-14.3l-.18-2.53s-6.55.91-6.91-6.75l-.93-8.81s-1.78-8.53,6.21-8c0,0-3.94-14.21,9.14-15.91,0,0,17-3.41,19.6,7.95,0,0,3.21,18.76,3.17,27.86,0,0,1.67,9.66-2.31,11.93C503.53,231.1,504.49,231.1,506.4,235.93Z" fill="#1f3e82"/><path d="M506.4,235.93l-3.49.66a212.08,212.08,0,0,1-26.16,3.22,120.31,120.31,0,0,1-16.91-.19c2-3.38,7.76-12.09,15.9-14.3l-.18-2.53s-6.55.91-6.91-6.75l-.93-8.81s-1.78-8.53,6.21-8c0,0-3.94-14.21,9.14-15.91,0,0,17-3.41,19.6,7.95,0,0,3.21,18.76,3.17,27.86,0,0,1.67,9.66-2.31,11.93C503.53,231.1,504.49,231.1,506.4,235.93Z" opacity="0.1"/><g opacity="0.2"><path d="M493.78,232.56c-12.13,0-13.91-6.82-14-7.17a.29.29,0,0,1,.56-.13c0,.1,2.66,10,23.13,5.57a.27.27,0,0,1,.34.21.28.28,0,0,1-.22.34A46.29,46.29,0,0,1,493.78,232.56Z"/></g><g opacity="0.2"><path d="M476.82,219.45a.29.29,0,0,1-.28-.21c0-.12-2.93-12.07-2.89-20a.28.28,0,0,1,.28-.28h0a.29.29,0,0,1,.29.28c0,7.84,2.84,19.71,2.87,19.83a.27.27,0,0,1-.21.34Z"/></g><g opacity="0.2"><path d="M478.16,198.8a.29.29,0,0,1-.25-.15.29.29,0,0,1,.12-.39c.12-.06,12.68-6.65,25.36-3.24a.28.28,0,1,1-.15.54c-12.46-3.34-24.82,3.14-24.95,3.21A.31.31,0,0,1,478.16,198.8Z"/></g><g opacity="0.2"><path d="M501.33,211.9h-6.76a1.73,1.73,0,0,1-1.3-.57,1.7,1.7,0,0,1-.46-1.34l1.33-15.67a.29.29,0,0,1,.3-.26.27.27,0,0,1,.26.3L493.37,210a1.17,1.17,0,0,0,.31.91,1.2,1.2,0,0,0,.89.39h6.76a1.2,1.2,0,0,0,1.14-1.54l-4.61-15.41a.29.29,0,0,1,.19-.35.29.29,0,0,1,.36.19l4.61,15.4a1.74,1.74,0,0,1-.28,1.56A1.71,1.71,0,0,1,501.33,211.9Z"/></g><g opacity="0.2"><path d="M490.74,219.45a.29.29,0,0,1-.29-.26.3.3,0,0,1,.26-.31l12.8-1.09a.28.28,0,0,1,.05.56l-12.8,1.1Z"/></g><path d="M476.31,225.28a.58.58,0,0,1-.43.6c-.1,0-9.22,2.39-15.47,13.79l-.57,0-.66-.07c5.76-10.86,13.92-14,16-14.64l-.1-1.53a6.58,6.58,0,0,1-4.87-1.71,8.11,8.11,0,0,1-2.09-5.61l-.92-8.77c-.49-3.2,0-5.59,1.56-7.07,2.15-2.1,5.46-1.53,5.59-1.5a.55.55,0,0,1,.46.65.57.57,0,0,1-.65.47s-2.89-.49-4.61,1.2c-1.24,1.21-1.66,3.27-1.23,6.11l.94,8.82v.09a7.07,7.07,0,0,0,1.75,4.8,5.71,5.71,0,0,0,4.55,1.36.57.57,0,0,1,.61.53Z" fill="#1f3e82"/><g opacity="0.2"><path d="M476.31,225.28a.58.58,0,0,1-.43.6c-.1,0-9.22,2.39-15.47,13.79l-.57,0-.66-.07c5.76-10.86,13.92-14,16-14.64l-.1-1.53a6.58,6.58,0,0,1-4.87-1.71,8.11,8.11,0,0,1-2.09-5.61l-.92-8.77c-.49-3.2,0-5.59,1.56-7.07,2.15-2.1,5.46-1.53,5.59-1.5a.55.55,0,0,1,.46.65.57.57,0,0,1-.65.47s-2.89-.49-4.61,1.2c-1.24,1.21-1.66,3.27-1.23,6.11l.94,8.82v.09a7.07,7.07,0,0,0,1.75,4.8,5.71,5.71,0,0,0,4.55,1.36.57.57,0,0,1,.61.53Z"/></g><path d="M592.77,174.68a.68.68,0,0,1-.23-.05l-9.63-4.38a.57.57,0,0,1-.28-.75.56.56,0,0,1,.75-.28l9.63,4.37a.57.57,0,0,1-.24,1.09Z" fill="#2f2e41"/><path d="M613.81,114l-.14,0-4.55-1.14a.57.57,0,0,1,.28-1.1l4.54,1.14a.57.57,0,0,1-.13,1.12Z" fill="#2f2e41"/><path d="M615.51,177.67h-7.76a.57.57,0,1,1,0-1.13h7.76a.57.57,0,1,1,0,1.13Z" fill="#2f2e41"/><path d="M620,189.87c-22.32,0-48.7-11-49-11.11a.57.57,0,0,1-.31-.74.58.58,0,0,1,.75-.3c.31.13,31.2,13,54.16,10.76a.56.56,0,0,1,.62.51.57.57,0,0,1-.51.62C623.87,189.79,622,189.87,620,189.87Z" fill="#2f2e41"/><path d="M611.13,170.3A75.29,75.29,0,0,1,584,165.12a.57.57,0,1,1,.46-1,73.36,73.36,0,0,0,33.24,4.74.57.57,0,0,1,.63.5.58.58,0,0,1-.5.63A64.55,64.55,0,0,1,611.13,170.3Z" fill="#2f2e41"/><g opacity="0.2"><path d="M592.77,174.68a.68.68,0,0,1-.23-.05l-9.63-4.38a.57.57,0,0,1-.28-.75.56.56,0,0,1,.75-.28l9.63,4.37a.57.57,0,0,1-.24,1.09Z"/><path d="M613.81,114l-.14,0-4.55-1.14a.57.57,0,0,1,.28-1.1l4.54,1.14a.57.57,0,0,1-.13,1.12Z"/><path d="M615.51,177.67h-7.76a.57.57,0,1,1,0-1.13h7.76a.57.57,0,1,1,0,1.13Z"/><path d="M620,189.87c-22.32,0-48.7-11-49-11.11a.57.57,0,0,1-.31-.74.58.58,0,0,1,.75-.3c.31.13,31.2,13,54.16,10.76a.56.56,0,0,1,.62.51.57.57,0,0,1-.51.62C623.87,189.79,622,189.87,620,189.87Z"/><path d="M611.13,170.3A75.29,75.29,0,0,1,584,165.12a.57.57,0,1,1,.46-1,73.36,73.36,0,0,0,33.24,4.74.57.57,0,0,1,.63.5.58.58,0,0,1-.5.63A64.55,64.55,0,0,1,611.13,170.3Z"/></g></svg>