<svg xmlns="http://www.w3.org/2000/svg" width="865.76" height="682.89" viewBox="0 0 865.76 682.89"><path d="M764.52,449C776.33,332.55,595.46,83.09,474.23,206.53c-63.81,65-219.07,140.55-333.06,179.24-110.84,37.62,118.15,225,290.29,242.46S752.7,565.45,764.52,449Z" fill="#1F3E82"/><path d="M764.52,449C776.33,332.55,595.46,83.09,474.23,206.53c-63.81,65-219.07,140.55-333.06,179.24-110.84,37.62,118.15,225,290.29,242.46S752.7,565.45,764.52,449Z" fill="#fff4f2" opacity="0.7"/><path d="M194.45,535.85c6.64,0,6.65-10.32,0-10.32s-6.66,10.32,0,10.32Z" fill="#1F3E82"/><path d="M133.16,299.26c6.64,0,6.65-10.32,0-10.32s-6.66,10.32,0,10.32Z" fill="#1F3E82"/><path d="M237.9,150.24c6.64,0,6.65-10.33,0-10.33s-6.65,10.33,0,10.33Z" fill="#1F3E82"/><path d="M237.9,150.24c6.64,0,6.65-10.33,0-10.33s-6.65,10.33,0,10.33Z" fill="#1F3E82"/><path d="M105.68,530c6.64,0,6.66-10.32,0-10.32S99,530,105.68,530Z" fill="#1F3E82"/><path d="M426.52,62.25c6.64,0,6.65-10.33,0-10.33s-6.66,10.33,0,10.33Z" fill="#1F3E82"/><path d="M360.52,458.63c6.64,0,6.65-10.32,0-10.32s-6.66,10.32,0,10.32Z" fill="#1F3E82"/><path d="M184,258c6.64,0,6.65-10.32,0-10.32S177.37,258,184,258Z" fill="#1F3E82"/><path d="M229.82,586c6.64,0,6.65-10.33,0-10.33s-6.66,10.33,0,10.33Z" fill="#1F3E82"/><path d="M590.26,540.52c6.64,0,6.65-10.32,0-10.32s-6.65,10.32,0,10.32Z" fill="#1F3E82"/><path d="M609.46,137.23c6.65,0,6.66-10.32,0-10.32s-6.65,10.32,0,10.32Z" fill="#1F3E82"/><path d="M745.48,458.63c6.64,0,6.65-10.32,0-10.32s-6.65,10.32,0,10.32Z" fill="#1F3E82"/><path d="M213.74,462.06c3.32,0,3.32-5.16,0-5.16s-3.33,5.16,0,5.16Z" fill="#1F3E82"/><path d="M542.57,84.92c3.32,0,3.33-5.16,0-5.16s-3.32,5.16,0,5.16Z" fill="#1F3E82"/><path d="M459.08,256.87c3.32,0,3.32-5.16,0-5.16s-3.33,5.16,0,5.16Z" fill="#1F3E82"/><path d="M501.7,473.2c3.32,0,3.33-5.16,0-5.16s-3.33,5.16,0,5.16Z" fill="#1F3E82"/><path d="M405.09,608.82c3.32,0,3.33-5.16,0-5.16s-3.32,5.16,0,5.16Z" fill="#1F3E82"/><path d="M700.49,605.11c3.32,0,3.32-5.16,0-5.16s-3.33,5.16,0,5.16Z" fill="#1F3E82"/><path d="M462.69,358c3.32,0,3.32-5.16,0-5.16s-3.33,5.16,0,5.16Z" fill="#1F3E82"/><path d="M312.84,74.63c3.32,0,3.33-5.16,0-5.16s-3.33,5.16,0,5.16Z" fill="#1F3E82"/><path d="M138.14,416.29c3.32,0,3.33-5.16,0-5.16s-3.32,5.16,0,5.16Z" fill="#1F3E82"/><path d="M455,133.42c3.32,0,3.32-5.16,0-5.16s-3.33,5.16,0,5.16Z" fill="#1F3E82"/><path d="M750.46,155.9c3.33,0,3.33-5.16,0-5.16s-3.32,5.16,0,5.16Z" fill="#1F3E82"/><path d="M326.47,436.69c3.32,0,3.33-5.16,0-5.16s-3.32,5.16,0,5.16Z" fill="#1F3E82"/><path d="M603.36,399.23c3.32,0,3.32-5.16,0-5.16s-3.33,5.16,0,5.16Z" fill="#1F3E82"/><path d="M653.12,77.27c3.32,0,3.33-5.16,0-5.16s-3.32,5.16,0,5.16Z" fill="#1F3E82"/><path d="M746.85,554.45c3.32,0,3.32-5.16,0-5.16s-3.33,5.16,0,5.16Z" fill="#1F3E82"/><path d="M377.79,132.64v14.3l-7.29,3.12s2.35,36.16,19.69,26.67,22-25.43,18.29-26.67l-5.2-3.12-.62-13.61Z" fill="#fed4c0"/><path d="M572.77,203.62l-58.88,9.07A18,18,0,0,1,499,208.16c-28.35-26.16-47.08-39.25-58.46-45.78h0c-10.2-5.84-31.78-13.22-31.78-13.22l.22,1.1-.44-.18c-20.23,42.11-38,0-38,0s-21.58,7.37-31.78,13.22h0c-11.38,6.53-30.11,19.61-58.46,45.78a18,18,0,0,1-14.91,4.52l-58.88-9.06-11.76,29.93,68,18.17a34.91,34.91,0,0,0,28.65-4.87L335,218l.19-.64c.9,33.36,3.48,69.81,3.48,69.81l.82,16.51h99.91l.05-.92h.18l.82-16.51s2.58-36.45,3.48-69.81l.19.64,43.76,29.81a34.91,34.91,0,0,0,28.65,4.87l68-18.17Z" fill="#002944"/><path d="M415,101.25c0-20.41-10.9-36.95-24.36-36.95s-24.36,16.54-24.36,37h-.15A8.1,8.1,0,1,0,368.6,117c3.9,12.51,12.27,21.19,22,21.19s18.08-8.66,22-21.14A8.08,8.08,0,1,0,415,101.25Z" fill="#fed4c0"/><path d="M368.93,108.47S367.48,80,377.6,73.79c0,0,3.71-4.75,14.24,6.4s20.76,5.17,20.76,5.17,2.57,19.19.92,23.11c0,0,14.86-25.39-1.45-38.39s-25.18-8.47-38.19,0C373.88,70.08,349.52,73,368.93,108.47Z" fill="#002944"/><path d="M378.64,133.42A23.68,23.68,0,0,0,390,137.19a17.78,17.78,0,0,0,5.87-.71,24.52,24.52,0,0,0,2.88-1c1-.38,1.84-.9,2.84-1.29a22.84,22.84,0,0,1-2.44,2,16.46,16.46,0,0,1-2.84,1.52,14.6,14.6,0,0,1-6.38,1.16,15.85,15.85,0,0,1-6.29-1.6A15.12,15.12,0,0,1,378.64,133.42Z" fill="#f9c0aa"/><polygon points="342.43 303.64 342.43 587.68 380.41 587.68 385.36 339.97 395.27 339.97 414.26 587.68 452.24 587.68 435.73 303.64 342.43 303.64" fill="#1F3E82"/><path d="M422.52,597.59s-10.32,28.9-1.65,33h8.67s4.12-11.56,9.9,0h52.85s3.3-9.08-9.5-13.21-34.26-19.82-34.26-19.82Z" fill="#1F3E82"/><polygon points="420.87 587.68 422.52 597.59 448.53 597.59 448.53 587.68 420.87 587.68" fill="#fed4c0"/><path d="M374,597.59s10.32,28.9,1.65,33H367s-4.13-11.56-9.91,0H304.25s-3.3-9.08,9.49-13.21S348,597.59,348,597.59Z" fill="#1F3E82"/><polygon points="375.67 587.68 374.02 597.59 348.01 597.59 348.01 587.68 375.67 587.68" fill="#fed4c0"/><g opacity="0.2"><path d="M398.69,339.27a37,37,0,0,1-8.41.85,36.39,36.39,0,0,1-8.41-.85,35.87,35.87,0,0,1,8.41-.86A36.4,36.4,0,0,1,398.69,339.27Z"/></g><g opacity="0.2"><path d="M341.57,254.29a51,51,0,0,0,1.75,7.76c.35,1.28.82,2.52,1.23,3.77l1.5,3.66a50.52,50.52,0,0,0,8.51,13.16,46.83,46.83,0,0,0,12.12,9.88,49.6,49.6,0,0,0,7.08,3.51c2.43,1.07,5,1.71,7.52,2.67-1.3-.27-2.61-.55-3.91-.86l-2-.45-1-.23-.95-.33a51.58,51.58,0,0,1-7.43-3.15,42.12,42.12,0,0,1-12.77-9.9A44.72,44.72,0,0,1,344.84,270,46,46,0,0,1,341.57,254.29Z"/></g><g opacity="0.2"><path d="M353.45,258.89a51,51,0,0,0,3.32,7.24c.61,1.17,1.33,2.29,2,3.43l2.24,3.27A50.63,50.63,0,0,0,372,283.94,47,47,0,0,0,386,291.08a50.92,50.92,0,0,0,7.66,2c2.59.54,5.26.63,7.91,1.05-1.34,0-2.67,0-4,0l-2,0-1,0-1-.13a49.89,49.89,0,0,1-7.92-1.53,42.24,42.24,0,0,1-14.55-7,45.16,45.16,0,0,1-11.12-11.74A46.34,46.34,0,0,1,353.45,258.89Z"/></g><g opacity="0.2"><rect x="397.33" y="189.99" width="29.18" height="36.4"/></g><path d="M678.51,132.6v16l6.59,1.44s-1.65,36.13-19,26.63-22.71-25.39-19-26.63l5.78-1.86.74-14.91Z" fill="#b86a4b"/><path d="M641.34,101.21c0-20.41,10.9-36.95,24.36-36.95s24.35,16.54,24.35,36.95h.16a8.1,8.1,0,0,1,0,16.2,7.74,7.74,0,0,1-2.51-.44c-3.9,12.51-12.28,21.19-22,21.19s-18.09-8.66-22-21.14a8.08,8.08,0,1,1-2.37-15.81Z" fill="#b86a4b"/><path d="M687.37,108.43S688.82,80,678.7,73.75c0,0-3.71-4.75-14.24,6.4s-20.76,5.17-20.76,5.17-2.57,19.19-.92,23.11c0,0-14.86-25.39,1.45-38.39s25.18-8.47,38.19,0C682.42,70,706.77,72.93,687.37,108.43Z" fill="#002944"/><path d="M677.66,133.38a15.06,15.06,0,0,1-5,3.89,15.77,15.77,0,0,1-6.28,1.6,14.6,14.6,0,0,1-6.38-1.16,15.8,15.8,0,0,1-2.84-1.52,22.84,22.84,0,0,1-2.44-2c1,.39,1.89.91,2.84,1.29a23.91,23.91,0,0,0,2.88,1,17.75,17.75,0,0,0,5.87.71A23.68,23.68,0,0,0,677.66,133.38Z" fill="#b2593d"/><path d="M750.19,328.17l6.53,38.18a15.09,15.09,0,0,1-2.89,11.72l-13.1,17.11a3.72,3.72,0,0,1-3,1.47h0a3.74,3.74,0,0,1-3.74-3.74h0a8.79,8.79,0,0,1,1.86-5.4l10-12.9s-1.33-17.64-1.62-15l-5.21,8.49a2.73,2.73,0,0,1-4.6.06h0a2.75,2.75,0,0,1-.45-1.62,14.39,14.39,0,0,1,1.76-6.06l1.45-2.64s-3.24-19.69.88-29.68Z" fill="#b86a4b"/><path d="M663.42,184.2l4.38,14.73-47.75,62.73c-7.41,9.95-21.36,9.47-27.57-3,0,0-.47-9.12.78-11.81,5.58-12.06,11.68-13.57,21.34-21.67Z" fill="#8c4d3e"/><path d="M665.14,185.92l4.38,14.73-47.75,62.73c-7.41,9.95-21.36,9.47-27.57-3,0,0-.47-9.12.78-11.81,5.58-12.06,11.68-13.57,21.34-21.67Z" fill="#8c4d3e"/><path d="M555,224.46s-.33-6.62-10.64-17-19.53-17.42-14.12-8.65l4.23,6.62s-11-4.12-17.35-7.15a8.72,8.72,0,0,0-10.2,1.81c-2.34,2.59-2.24,5.4,4.37,10.29,9.9,7.32,25.22,18.46,28.19,19.55C540.52,230.32,555,224.46,555,224.46Z" fill="#b86a4b"/><path d="M616.57,303.64h99.49l.83-16.51,14,57,26-4.13c-7.15-84-23.75-138.32-32.45-162.08a32.87,32.87,0,0,0-18.32-19.09l-21.07-8.74s-17.75,42.11-38,0l-21.07,8.74c-8.51,3.52-19.53,10.2-22.69,18.86C599.42,188.41,592,212,586.45,222.94a5.51,5.51,0,0,1-8.23,1.87l-31.28-18.66-12,23.24,39.87,33.11a24.45,24.45,0,0,0,33.78-5.94l6.78-9.48.82,56.56h99.5" fill="#002944"/><path d="M540.93,208.46a15.21,15.21,0,0,1-3.38-1.19,17.89,17.89,0,0,1-3.07-1.83,7.7,7.7,0,0,1,1.79.37,12.42,12.42,0,0,1,1.66.65A11.64,11.64,0,0,1,540.93,208.46Z" fill="#160b07"/><path d="M525.77,206.61a39.12,39.12,0,0,1-4.1-1.6c-1.34-.59-2.64-1.27-3.92-2a37.12,37.12,0,0,1-3.72-2.37,20.36,20.36,0,0,1-3.31-2.91c2.43,1.65,4.93,3.07,7.47,4.5S523.26,205.07,525.77,206.61Z" fill="#160b07"/><path d="M519.83,212.58a25.88,25.88,0,0,1-3.83-1.23,32.83,32.83,0,0,1-3.66-1.7,24,24,0,0,1-6.42-4.86c1.14.73,2.25,1.45,3.39,2.12s2.29,1.33,3.46,2Z" fill="#160b07"/><path d="M523.09,210a34.93,34.93,0,0,1-4.56-1.54,40.44,40.44,0,0,1-4.36-2.07,27.78,27.78,0,0,1-4-2.67,11.45,11.45,0,0,1-3.19-3.63,16.19,16.19,0,0,0,3.6,3.07c1.32.87,2.67,1.69,4.07,2.44C517.37,207.16,520.23,208.54,523.09,210Z" fill="#160b07"/><path d="M560.28,580.85l3.55,20.69,25.55,18.89s-30,10.83-45.2-5.27l3.09-14.24-7.12-18.27Z" fill="#8c4d3e"/><path d="M465.63,580.85l-.11,20.69L440,620.43s30,10.83,45.2-5.27l-3.09-14.24,3.68-18.27Z" fill="#8c4d3e"/><path d="M512,279.07l-12.52,22.4a148.46,148.46,0,0,0-17.13,49.94l-34.63,235,127.41-3.76,7.23-222.9a130.16,130.16,0,0,0-10.85-57.9,90.65,90.65,0,0,0-14.1-22.78Z" fill="#002944"/><path d="M498.46,128.18c.21,2.91,1.32,3,2,6.24,1,4.69-1.1,5.67-.11,9.43.57,2.13,1.3,2,5,7.36,3.86,5.49,3,5.49,5.05,7.69,3.58,3.87,5.2,2.77,9.26,6.94,2.69,2.76,2.38,3.66,5.35,6.38,1.18,1.09,1.67,1.34,6.27,4.41,7.63,5.08,8.1,5.57,9.89,6a17.66,17.66,0,0,0,8.33-.59c3-.77,3.09-1.42,8.16-3.36s5.51-1.45,7.42-2.77c2.87-2,2.26-3.28,5.71-6.31,3.25-2.86,4.16-2,6.07-4.36,2.45-3,1.22-4.65,3.74-7.24,1.91-2,3.05-1.45,5.12-3.69,1.36-1.49,1.45-2.34,2.81-4.94,2.77-5.29,4-4.71,5.66-8.58.89-2.08.32-1.72,2.09-8.18,1.4-5.13,1.66-5,1.8-6.65.4-5-2.08-5.32-1.18-9,.54-2.21,2-4.53,1.19-7.65h0c-.81-5.83-1.41-10.1-4.61-14.05-1.74-2.14-2-1.49-7.31-6.66-3.33-3.28-4-4.36-6.3-5.71-3-1.77-3.5-1-7.22-2.76-4.82-2.34-4.7-4.07-8.57-5.34-2.56-.83-2.58-.07-7.5-.8-6.24-.92-6.45-2.18-9.59-1.87-3.35.33-3.73,1.84-8.58,3.26-4.06,1.19-4.69,0-7.78,1.18s-2.86,2.31-6.73,4.35c-4.58,2.42-5.91,1.34-8.05,3.43s-1.06,3.42-3.4,7.56c-1.92,3.38-2.85,2.89-6,7.29a55.58,55.58,0,0,0-4.69,8.23c-1.7,3.37-2.56,5.1-2.77,6.89-.34,2.89.64,3.2.48,6.82C499.35,124.89,498.25,125.25,498.46,128.18Z" fill="#002944"/><path d="M520.73,141.07h.09c.57-16.52,11-29.79,24.21-30.08s24.22,12.47,25.54,28.95h.1c4-.09,7.3,3.44,7.4,7.88s-3.05,8.12-7,8.22a6.77,6.77,0,0,1-2.29-.4c-2.75,8.2-8.13,14.63-14.84,17.49h0l.2,20.45-.9,15-20.57-1.5.42-13,1.62-22.74h.06a30.12,30.12,0,0,1-11.39-14.66,6.47,6.47,0,0,1-2.28.5c-4,.09-7.3-3.44-7.4-7.88S516.74,141.17,520.73,141.07Z" fill="#8c4d3e"/><path d="M471.92,347.19l-3.65,27.05a9.84,9.84,0,0,0,2.69,8.1l10.79,11.46a3,3,0,0,0,2.36.91h0a2.78,2.78,0,0,0,2.76-2.78h0a5.79,5.79,0,0,0-1.64-3.71L477,379.59s.37-12.43.7-10.58l4.35,5.74a2.24,2.24,0,0,0,3.57-.15h0a1.73,1.73,0,0,0,.29-1.16,9.46,9.46,0,0,0-1.58-4.17l-1.23-1.79s1.78-13.94-1.79-20.78Z" fill="#8c4d3e"/><polygon points="477.69 257.89 470.31 359.99 482.82 354.36 498.75 267.1 477.69 257.89" fill="#8c4d3e"/><path d="M475.93,274.22l4.17-54.48a28.78,28.78,0,0,1,13.71-22.38,54.86,54.86,0,0,1,14.7-6.28A105,105,0,0,1,533,188.24s8.67,23.95,21.05,0L571.17,194a37.82,37.82,0,0,1,22.35,20.21L612,244.6l-14.71,18L572.43,245.4l-15,33.67H512l-10-34.47-3.66,29.62Z" fill="#1F3E82"/><path d="M285.13,116.31c-1,16.52-26.12,15.12-25.27-1.41S286,99.78,285.13,116.31Z" fill="#002944"/><path d="M228,118.89c-1,16.52-26.12,15.12-25.27-1.41S228.86,102.36,228,118.89Z" fill="#002944"/><path d="M271.15,145.09h-.09c0-38.75-45.41-41.25-49.69-2.76-10.85-.78-9.55,19,1.32,15.74,1,10.19,3.57,16.54,14.11,21.13-.56,8-.86,24.29-.35,32.29l20.62-.82.75-13.49-1.52-18.28c8.51-2.15,11.53-14.62,11.7-18.32C278.4,165,281.93,145.68,271.15,145.09Z" fill="#b86a4b"/><path d="M239.34,180.76c4.95,0,9.45.46,14.2-.92C249.9,183.48,243.58,183.19,239.34,180.76Z" fill="#b2593d"/><path d="M228.27,129.27c7.47.11,6.27-5.45,7.22-10,0,0,4.44,10.26,13.27.74,2-2.17.88,14.19,11.19,2.77,2.62-2.51,5,12.24,9.56,11.43l-.15,14.63c29.93-55.16-83.51-59.2-45.47,2.12C223.89,151,219.85,129.15,228.27,129.27Z" fill="#002944"/><path d="M243.25,107.47l-3.6-5s-8.58.92-3.6-2.22,5.93-.6,5.87.33Z" fill="#002944"/><path d="M318.45,350.57c-.29,6.39,7.26,30.28,1,35.15l-10.8,11.46c-4.16,3.26-6.94-2.67-3.48-5.59l8.28-8.63s-.37-12.42-.7-10.58l-4.35,5.74c-1.13,1.57-4.05.71-3.86-1.3.17-2.17,1.55-4.22,2.81-6,0,0-1.78-13.94,1.79-20.78Z" fill="#b86a4b"/><polygon points="312.69 261.26 320.06 363.36 307.55 357.73 291.62 270.48 312.69 261.26" fill="#b86a4b"/><rect x="280.06" y="302.06" width="1.72" height="0.86" transform="translate(-75.46 94.14) rotate(-16.81)" fill="#200100"/><path d="M287.56,327.37l-.53-1.73,1.65-.5.52,1.73Zm-1.05-3.46-.52-1.73,1.64-.5.53,1.73Zm-1.05-3.46-.52-1.73,1.64-.5.53,1.73Zm-1-3.46-.52-1.73,1.64-.5.53,1.73Zm-1.05-3.46-.52-1.73,1.65-.5L285,313Zm-1.05-3.46-.52-1.73,1.65-.5.52,1.73Zm-1-3.46-.53-1.73,1.65-.5.52,1.73Z" fill="#200100"/><rect x="288.17" y="328.83" width="1.72" height="0.86" transform="matrix(0.96, -0.29, 0.29, 0.96, -83.29, 98.33)" fill="#200100"/><path d="M314.44,277.59c-6-47.66,9-85.38-57.1-86,0,0-8.67,23.94-21,0l-17.09,5.75c-19.71,5.22-30,35.79-40.81,50.6v35.84l39.55-35L233,282.44H278.4l10-34.47,3.66,29.62Z" fill="#1F3E82"/><g opacity="0.2"><path d="M208.63,230a62.48,62.48,0,0,1,9.31,18.76A62.13,62.13,0,0,1,208.63,230Z"/></g><g opacity="0.2"><path d="M288.43,248a90.36,90.36,0,0,1,7.31-24.15A90.36,90.36,0,0,1,288.43,248Z"/></g><path d="M172.4,184.24l-12.89,8.38-4.32,78.71a14.48,14.48,0,0,0,23.2,12.48C191.69,260.48,174.82,208.87,172.4,184.24Z" fill="#b86a4b"/><path d="M173.69,198.18s3.39-5,1.63-18.11-4.55-23.3-5.46-14l-.57,7.11s-5.7-9-8.62-14.69c-3.9-6.71-15.44-6.72-10.84,5.55,3.13,10.71,8.08,27.16,9.63,29.58C160,194.46,173.69,198.18,173.69,198.18Z" fill="#b86a4b"/><path d="M172.29,178.89a15.9,15.9,0,0,1-3-5.71A10.79,10.79,0,0,1,172.29,178.89Z" fill="#b2593d"/><path d="M291,601.19c3.2-62.22,9.28-205.37,8-266.22,4.63,8,1.16-11.88-6.95-30A90.37,90.37,0,0,0,278,282.16H232.57c-12.86,22.09-26.55,46.66-29.65,72.35L171.21,586.06l-2.59,15.13-25.56,18.89s30,10.84,45.21-5.27l-3.09-14.24L252.33,337.9h2.46l19.66,262.67-3.09,14.24c15.17,16.11,45.21,5.27,45.21,5.27Z" fill="#b86a4b"/><path d="M326.47,630.61s-33.75.63-41.8-7v7H269.81s-4.67-24.86,3.24-23.58,36.06,22.76,36.69,8C315.58,618.41,327.58,621.79,326.47,630.61Z" fill="#002944"/><path d="M232.76,282.16l-12.52,22.41c-25.42,39.66-22.86,95.58-29.31,129.5l109.58,0c.67-46.92,12.57-113.8-22.34-151.95Z" fill="#002944"/><path d="M133.16,630.61s33.75.63,41.8-7v7h14.86s4.67-24.86-3.24-23.58-36.06,22.76-36.69,8C144.05,618.41,132.05,621.79,133.16,630.61Z" fill="#002944"/><path d="M551.27,174.06a11.31,11.31,0,0,1-3.54,1.28,15.24,15.24,0,0,1-3.76.28,12.87,12.87,0,0,1-3.73-.79,8.2,8.2,0,0,1-3.14-2.15c1.23.35,2.35.65,3.5.86s2.3.3,3.47.37C546.41,174,548.75,174,551.27,174.06Z" fill="#874032"/><g opacity="0.2"><path d="M558,88.08a3.47,3.47,0,0,1-1-.14c-2.31-.64-3.41-3.33-3.46-3.45a.85.85,0,0,1,.48-1.11.86.86,0,0,1,1.12.47s.84,2,2.33,2.44a3,3,0,0,0,2.55-.75.85.85,0,0,1,1.2.17.86.86,0,0,1-.17,1.21A5.11,5.11,0,0,1,558,88.08Z"/></g><g opacity="0.2"><path d="M585,102.89a6.8,6.8,0,0,1-3.82-1.49.86.86,0,0,1,1.1-1.33s1.7,1.39,3.21,1a2.94,2.94,0,0,0,1.89-1.87.87.87,0,0,1,1.14-.42.86.86,0,0,1,.42,1.14,4.56,4.56,0,0,1-3.07,2.83A3.75,3.75,0,0,1,585,102.89Z"/></g><g opacity="0.2"><path d="M568.58,111.32a6.75,6.75,0,0,1-3.81-1.49.87.87,0,0,1-.11-1.21.86.86,0,0,1,1.21-.11s1.71,1.37,3.21,1a3,3,0,0,0,1.89-1.87.86.86,0,0,1,1.56.72,4.57,4.57,0,0,1-3.08,2.83A3.69,3.69,0,0,1,568.58,111.32Z"/></g><path d="M545.19,119a6.75,6.75,0,0,1-3.81-1.49l1.1-1.32s1.7,1.38,3.21,1a3,3,0,0,0,1.89-1.87l1.56.72a4.55,4.55,0,0,1-3.08,2.83A3.69,3.69,0,0,1,545.19,119Z" fill="#560d0d"/><g opacity="0.2"><path d="M578.18,128.17a3.87,3.87,0,0,1-1.11-.16c-2.29-.71-3.32-3.43-3.36-3.55a.86.86,0,0,1,1.61-.6s.79,2,2.27,2.5a2.93,2.93,0,0,0,2.57-.67.86.86,0,1,1,1,1.4A5.15,5.15,0,0,1,578.18,128.17Z"/></g><g opacity="0.2"><path d="M535.6,83.09a3.48,3.48,0,0,1-1.11-.17c-2.29-.7-3.33-3.42-3.37-3.54a.85.85,0,0,1,.51-1.1.87.87,0,0,1,1.11.5s.78,2,2.26,2.5a3,3,0,0,0,2.57-.68.86.86,0,0,1,1,1.41A5.14,5.14,0,0,1,535.6,83.09Z"/></g><g opacity="0.2"><path d="M511.24,106.63a3.78,3.78,0,0,1-1.11-.17c-2.29-.71-3.32-3.43-3.37-3.55a.86.86,0,0,1,1.62-.6s.78,2,2.26,2.51a3,3,0,0,0,2.57-.68.86.86,0,1,1,1,1.4A5.16,5.16,0,0,1,511.24,106.63Z"/></g><g opacity="0.2"><path d="M508.74,130.78a3.57,3.57,0,0,1-1.11-.17c-2.29-.7-3.32-3.43-3.36-3.54a.86.86,0,0,1,1.61-.6s.79,2.05,2.27,2.5a3,3,0,0,0,2.57-.67.86.86,0,1,1,1,1.4A5.15,5.15,0,0,1,508.74,130.78Z"/></g><g opacity="0.2"><path d="M531.12,100.72a6.48,6.48,0,0,1-4.07-1.93.86.86,0,0,1,1.24-1.2s1.55,1.54,3.07,1.39a3,3,0,0,0,2.09-1.65.86.86,0,0,1,1.47.89,4.57,4.57,0,0,1-3.37,2.47Z"/></g><path d="M568.78,130.91s-8.28-2-10.65-15.54c0,0-.72,16.59-35.41,14.91l-.32,14.63-8-11.35s8-30.52,35.36-27.42a26.45,26.45,0,0,1,12.09,5,38.58,38.58,0,0,1,15.75,27l.36,2.93s-5.92-9.48-10.15,7.5Z" fill="#002944"/><g opacity="0.2"><path d="M523.85,118.27a6.71,6.71,0,0,1-3.81-1.49.86.86,0,0,1,1.1-1.32s1.7,1.39,3.21,1a3,3,0,0,0,1.89-1.87.86.86,0,0,1,1.56.72,4.57,4.57,0,0,1-3.08,2.83A3.69,3.69,0,0,1,523.85,118.27Z"/></g><g opacity="0.2"><path d="M547.74,117.73a6.8,6.8,0,0,1-3.82-1.49.87.87,0,0,1-.11-1.21.86.86,0,0,1,1.21-.12s1.72,1.38,3.21,1a3,3,0,0,0,1.89-1.87.86.86,0,0,1,1.56.72,4.56,4.56,0,0,1-3.07,2.83A3.81,3.81,0,0,1,547.74,117.73Z"/></g><g opacity="0.2"><path d="M585.91,144.93a6.76,6.76,0,0,1-3.82-1.49.86.86,0,0,1,1.1-1.32s1.7,1.37,3.21,1a3,3,0,0,0,1.89-1.87.86.86,0,0,1,1.14-.42.85.85,0,0,1,.42,1.14,4.56,4.56,0,0,1-3.07,2.83A4.43,4.43,0,0,1,585.91,144.93Z"/></g><path d="M574.16,140.85a73.48,73.48,0,0,0-2.41-13.17,44.76,44.76,0,0,0-5.17-12,22.78,22.78,0,0,0-9.15-8.48,23.08,23.08,0,0,0-12.23-2.05,30.72,30.72,0,0,0-21.73,12,30,30,0,0,0-5.4,11.72,44.05,44.05,0,0,0-.79,13.25,37.38,37.38,0,0,1-.88-13.56,30.1,30.1,0,0,1,4.88-13,32,32,0,0,1,23.64-13.92,29.93,29.93,0,0,1,7.13.32,22.26,22.26,0,0,1,6.85,2.26,24.62,24.62,0,0,1,10,10,41.94,41.94,0,0,1,4.52,13A55.09,55.09,0,0,1,574.16,140.85Z" fill="#1F3E82"/><path d="M599.29,631s-33.75.64-41.8-7v7H542.63s-4.67-24.86,3.24-23.58,36.06,22.76,36.69,8l11,5.69a10.46,10.46,0,0,1,5.69,9.32Z" fill="#002944"/><path d="M430.06,631s33.75.64,41.8-7v7h14.86s4.67-24.86-3.24-23.58-36.05,22.76-36.69,8l-11,5.69a10.48,10.48,0,0,0-5.69,9.32Z" fill="#002944"/><g opacity="0.2"><path d="M560.54,302a.85.85,0,0,1-.82-.61L559,299a.86.86,0,1,1,1.64-.5l.75,2.47a.87.87,0,0,1-.57,1.08A1.07,1.07,0,0,1,560.54,302Z"/><path d="M566,320.16a.85.85,0,0,1-.82-.61L563.84,315a.86.86,0,1,1,1.64-.5l1.38,4.53a.86.86,0,0,1-.58,1.07A.73.73,0,0,1,566,320.16Zm-2.74-9.06a.88.88,0,0,1-.83-.61L561.09,306a.86.86,0,1,1,1.64-.51l1.38,4.54a.86.86,0,0,1-.57,1.07A.77.77,0,0,1,563.29,311.1Z"/><path d="M568.15,327.16a.85.85,0,0,1-.82-.61l-.75-2.47a.86.86,0,0,1,1.65-.5l.75,2.47a.85.85,0,0,1-.58,1.07A.69.69,0,0,1,568.15,327.16Z"/></g><g opacity="0.2"><path d="M581.74,226.64a64,64,0,0,1-9.31,18.76,64.61,64.61,0,0,1,9.31-18.76Z"/></g><g opacity="0.2"><path d="M501.94,244.6a92.82,92.82,0,0,1-7.31-24.16,81.38,81.38,0,0,1,4.48,11.83A82.6,82.6,0,0,1,501.94,244.6Z"/></g><polygon points="713.17 303.64 713.17 587.68 675.19 587.68 670.24 339.97 660.33 339.97 641.34 587.68 603.36 587.68 619.87 303.64 713.17 303.64" fill="#1F3E82"/><g opacity="0.2"><path d="M615.33,200.43c.35,3.89.52,7.77.66,11.66s.18,7.78.2,11.66,0,7.78-.2,11.67l-.24,5.83c-.14,1.94-.23,3.89-.42,5.83-.2-1.94-.28-3.89-.42-5.83l-.24-5.83c-.16-3.89-.18-7.78-.2-11.67s0-7.77.2-11.66S615,204.32,615.33,200.43Z"/></g><g opacity="0.2"><path d="M716.06,202.49c.43,7,.66,14.1.87,21.15s.26,14.11.41,21.16.07,14.11,0,21.16l-.13,10.58c-.11,3.53-.16,7.06-.32,10.59-.23-3.53-.35-7.05-.53-10.58L716,266c-.2-7.06-.27-14.11-.4-21.16s-.08-14.11,0-21.16S715.78,209.55,716.06,202.49Z"/></g><path d="M633.08,597.59s10.32,28.9,1.65,33h-8.67s-4.13-11.56-9.91,0H563.31s-3.3-9.08,9.49-13.21,34.27-19.82,34.27-19.82Z" fill="#1F3E82"/><polygon points="634.73 587.68 633.08 597.59 607.07 597.59 607.07 587.68 634.73 587.68" fill="#b86a4b"/><path d="M681.58,597.59s-10.32,28.9-1.65,33h8.67s4.13-11.56,9.91,0h52.84s3.3-9.08-9.5-13.21-34.26-19.82-34.26-19.82Z" fill="#1F3E82"/><polygon points="679.93 587.68 681.58 597.59 707.59 597.59 707.59 587.68 679.93 587.68" fill="#b86a4b"/><g opacity="0.2"><path d="M657.94,339.27a36.4,36.4,0,0,1,8.41-.86,35.87,35.87,0,0,1,8.41.86,36.39,36.39,0,0,1-8.41.85A37,37,0,0,1,657.94,339.27Z"/></g><path d="M610.26,242.88l5.07,5,.27,18s-15.17,8.28-20.05-5Z" fill="#8c4d3e"/><path d="M520.2,168.82h-7.12V153.54h7.12Zm-5.83-1.29h4.54v-12.7h-4.54Z" fill="#1F3E82"/><path d="M578.56,168h-7.12V152.68h7.12Zm-5.83-1.29h4.54V154h-4.54Z" fill="#1F3E82"/><path d="M572.72,154v-1.8h4.34a8.32,8.32,0,0,1-4.34,3.62Z" fill="#8c4d3e"/><path d="M519,156.86V153.5h-4.09A7.72,7.72,0,0,0,519,156.86Z" fill="#8c4d3e"/><path d="M229.25,192.39l2.19,5.32a7.83,7.83,0,0,1-1,7.69,6.94,6.94,0,0,1-1.17,1.25,7.5,7.5,0,0,1-2.15,1.32l-7.73,3.19a5.13,5.13,0,0,1-.84.27,5.36,5.36,0,0,1-1.58.28,7.8,7.8,0,0,1-7.84-4.83L207,201.56a4.72,4.72,0,0,1,2.57-6.16l13.55-5.57A4.72,4.72,0,0,1,229.25,192.39Z" fill="#fed4c0"/><path d="M230.48,205.4a6.94,6.94,0,0,1-1.17,1.25L225,196.53a.78.78,0,0,1,1.44-.61Z" fill="#f9c0aa"/><path d="M226.7,208.17l-1.45.59-4.45-10.39a.79.79,0,0,1,1.45-.61Z" fill="#f9c0aa"/><path d="M222.43,209.92l-1.46.6-4.33-10.15a.78.78,0,0,1,.41-1h0a.79.79,0,0,1,1,.41Z" fill="#f9c0aa"/><path d="M218.59,211.43a5.36,5.36,0,0,1-1.58.28l-4.45-10.44a.79.79,0,0,1,.4-1,.77.77,0,0,1,1,.42Z" fill="#f9c0aa"/><path d="M583.44,199.59l-2.23,5.31a7.86,7.86,0,0,1-6.13,4.74,7.53,7.53,0,0,1-1.71.05,7.63,7.63,0,0,1-2.45-.59l-7.71-3.23a8.39,8.39,0,0,1-2.1-1.33,7.81,7.81,0,0,1-2.11-9l2.23-5.31a4.72,4.72,0,0,1,6.17-2.52l13.51,5.67A4.72,4.72,0,0,1,583.44,199.59Z" fill="#fed4c0"/><path d="M575.08,209.64a7.53,7.53,0,0,1-1.71.05l4.13-10.2a.78.78,0,0,1,1.45.59Z" fill="#f9c0aa"/><path d="M570.46,208.91,569,208.3l4.23-10.48a.78.78,0,0,1,1-.42.76.76,0,0,1,.43,1Z" fill="#f9c0aa"/><path d="M566.19,207.12l-1.45-.61,4.15-10.23a.74.74,0,0,1,1-.42h0a.8.8,0,0,1,.43,1Z" fill="#f9c0aa"/><path d="M562.42,205.47a5.86,5.86,0,0,1-1.31-.93L565.37,194a.79.79,0,0,1,1-.44.77.77,0,0,1,.43,1Z" fill="#f9c0aa"/><path d="M713.74,162.22l-2.23,5.3a7.84,7.84,0,0,1-6.13,4.74,6.53,6.53,0,0,1-1.71.05,7.61,7.61,0,0,1-2.45-.58l-7.71-3.24a4.18,4.18,0,0,1-.79-.4,5.52,5.52,0,0,1-1.31-.92,7.82,7.82,0,0,1-2.11-9l2.23-5.3a4.72,4.72,0,0,1,6.17-2.52l13.51,5.67A4.72,4.72,0,0,1,713.74,162.22Z" fill="#8c4d3e"/><path d="M705.38,172.26a6.53,6.53,0,0,1-1.71.05l4.13-10.2a.77.77,0,0,1,1-.42.78.78,0,0,1,.44,1Z" fill="#874032"/><path d="M700.76,171.53l-1.45-.6,4.23-10.49a.79.79,0,0,1,1-.42.78.78,0,0,1,.42,1Z" fill="#874032"/><path d="M696.49,169.75l-1.44-.61,4.14-10.23a.76.76,0,0,1,1-.43h0a.78.78,0,0,1,.43,1Z" fill="#874032"/><path d="M692.72,168.09a5.52,5.52,0,0,1-1.31-.92l4.26-10.52a.79.79,0,0,1,1-.44.76.76,0,0,1,.43,1Z" fill="#874032"/><path d="M518.88,186l2.07,5.37a7.84,7.84,0,0,1-1.13,7.66,6.93,6.93,0,0,1-1.2,1.22,7.62,7.62,0,0,1-2.17,1.28l-7.81,3a5.05,5.05,0,0,1-.84.25,5.8,5.8,0,0,1-1.59.25,7.81,7.81,0,0,1-7.73-5l-2.07-5.37a4.71,4.71,0,0,1,2.71-6.09l13.67-5.27A4.71,4.71,0,0,1,518.88,186Z" fill="#b86a4b"/><path d="M519.82,199.07a6.93,6.93,0,0,1-1.2,1.22l-4.09-10.21a.78.78,0,0,1,.43-1,.79.79,0,0,1,1,.43Z" fill="#b2593d"/><path d="M516,201.75l-1.47.57-4.21-10.49a.79.79,0,0,1,.45-1,.77.77,0,0,1,1,.44Z" fill="#b2593d"/><path d="M511.67,203.41l-1.47.57-4.1-10.25a.76.76,0,0,1,.43-1h0a.79.79,0,0,1,1,.43Z" fill="#b2593d"/><path d="M507.8,204.83a5.8,5.8,0,0,1-1.59.25L502,194.54a.8.8,0,0,1,.43-1,.78.78,0,0,1,1,.45Z" fill="#b2593d"/></svg>