<svg xmlns="http://www.w3.org/2000/svg" xmlns:xlink="http://www.w3.org/1999/xlink" width="865.76" height="682.89" viewBox="0 0 865.76 682.89"><defs><clipPath id="a"><path d="M757.64,470.66c108-93.27,50.67-313.44,50.67-313.44C786.39,16.1,617.87,47,617.87,47c-42.09,7.58-98.71-3.53-126.08-10a271.32,271.32,0,0,0-65.46-7.52c-117.1,1.16-237.28,60.63-237.28,60.63C-28.79,217.5,60.26,436.71,60.26,436.71s42.47,148,355.23,138.48C415.49,575.19,615.19,593.67,757.64,470.66Z" fill="none"/></clipPath></defs><path d="M757.64,470.66c108-93.27,50.67-313.44,50.67-313.44C786.39,16.1,617.87,47,617.87,47c-42.09,7.58-98.71-3.53-126.08-10a271.32,271.32,0,0,0-65.46-7.52c-117.1,1.16-237.28,60.63-237.28,60.63C-28.79,217.5,60.26,436.71,60.26,436.71s42.47,148,355.23,138.48C415.49,575.19,615.19,593.67,757.64,470.66Z" fill="#1f3e82"/><path d="M757.64,470.66c108-93.27,50.67-313.44,50.67-313.44C786.39,16.1,617.87,47,617.87,47c-42.09,7.58-98.71-3.53-126.08-10a271.32,271.32,0,0,0-65.46-7.52c-117.1,1.16-237.28,60.63-237.28,60.63C-28.79,217.5,60.26,436.71,60.26,436.71s42.47,148,355.23,138.48C415.49,575.19,615.19,593.67,757.64,470.66Z" fill="#fff" opacity="0.7"/><g clip-path="url(#a)"><polygon points="749.59 414.1 734.33 611.48 743.91 611.48 764.47 432.6 897.36 433.96 913.86 594.58 923.39 592.89 912.43 413.42 749.59 414.1" fill="#e1e1e2"/><polygon points="427.63 414.1 412.37 611.48 421.95 611.48 442.51 432.6 575.4 433.96 591.9 594.58 601.43 592.89 590.47 413.42 427.63 414.1" fill="#c2c4c6"/><rect x="590.47" y="405.19" width="217.84" height="17.81" rx="6.5" fill="#c2c4c6"/><rect x="72.59" y="16.1" width="713.79" height="372.65" rx="6.85" fill="#ccc"/><rect x="82.18" y="16.1" width="690.5" height="357.58" fill="#ebebeb"/><rect x="637.05" y="498.36" width="13.7" height="50.69" fill="#5d6166"/><rect x="412.36" y="405.19" width="193.18" height="17.81" rx="6.5" fill="#e1e1e2"/><path d="M673,301.07h52.79A22.24,22.24,0,0,1,748,323.31v160a0,0,0,0,1,0,0H661.95a11.2,11.2,0,0,1-11.2-11.2V323.31A22.24,22.24,0,0,1,673,301.07Z" fill="#2e3135"/><path d="M568.57,483.29H745.29a0,0,0,0,1,0,0v21.92a0,0,0,0,1,0,0H556.22a0,0,0,0,1,0,0v-9.57A12.35,12.35,0,0,1,568.57,483.29Z" fill="#5d6166"/><path d="M659.29,301.07h52.79a22.24,22.24,0,0,1,22.24,22.24V472.09a11.2,11.2,0,0,1-11.2,11.2H648.25a11.2,11.2,0,0,1-11.2-11.2V323.31A22.24,22.24,0,0,1,659.29,301.07Z" fill="#3f4347"/><rect x="434.29" y="5.14" width="12.33" height="379.5" fill="#ccc"/><path d="M149.92,396s2.19,5.41-5.18,8.86c-4.67,2.2-13.18,3.59-28.51,2.31l3-280,6.13-4.55,30.86-22.86Z" fill="#1f3e82"/><path d="M144.74,404.82c-4.67,2.2-13.18,3.59-28.51,2.31l3-280,6.13-4.55V313.2a125.65,125.65,0,0,0,1.61,20C129.6,349.76,135.6,382,144.74,404.82Z" fill="#fff" opacity="0.3"/><path d="M102.39,396s-1,10.6-27.07,9.23c0,0-4.06,3.48-15,2.43V190.93l18.35-20.81L97.25,149Z" fill="#1f3e82"/><path d="M76.7,255.86S63,368.2,75.32,405.19c0,0-4.06,3.48-15,2.43V190.93l18.35-20.81C79.14,181.34,79.83,210.13,76.7,255.86Z" fill="#fff" opacity="0.3"/></g><circle cx="715.83" cy="125.02" r="97.96" fill="#1f3e82"/><circle cx="715.83" cy="125.02" r="97.96" fill="#fff" opacity="0.3"/><path d="M749.4,102.41c5.75-.82,7.56,2.31,8.08,4.94a9.45,9.45,0,0,1-.36,4.8l-12.61,39a35,35,0,0,1-10,15.56c-17.56,15.56-45.43,16.56-45.43,16.56-12.33-8.22-19-18.47-22.45-28.06a58.15,58.15,0,0,1-.2-38.17l8.95-26.94c5.48-15.07,12.33-8.22,12.33-8.22,8.87,7.76,25.81,5.66,32,4.57a4.26,4.26,0,0,1,3.85,1.27C727.51,91.93,738.45,102.41,749.4,102.41Z" fill="#1f3e82"/><path d="M705.16,131.78,695.47,116a9.74,9.74,0,0,0-13.21-3.32h0a9.74,9.74,0,0,0-3.62,13.12l12.8,23.2a10,10,0,0,0,13,4.24l68.42-32a9.53,9.53,0,0,0,4.85-12h0A9.53,9.53,0,0,0,764.81,104Z" fill="#fff"/><path d="M279,646.32c-11.41,2.24-33.67,2-51.65,1.4-15.18-.53-27.3-1.4-27.3-1.4-2.74-13.7,8.22-19.22,8.22-19.22l25.56-7.4a3.78,3.78,0,0,0,3.87-1,4.52,4.52,0,0,1,4.15,2.67,6.47,6.47,0,0,1,.5,1.12c8.06,10.43,28.94,17,28.94,17C278.1,642.21,279,646.32,279,646.32Z" fill="#1f3e82"/><path d="M227.31,647.72c-15.18-.53-27.3-1.4-27.3-1.4-2.74-13.7,8.22-19.22,8.22-19.22l25.56-7.4a3.78,3.78,0,0,0,3.87-1,4.52,4.52,0,0,1,4.15,2.67L226,629.88C215.08,638.1,227.31,647.72,227.31,647.72Z" opacity="0.2"/><path d="M588.83,655.82l-82.14-2.4a2.58,2.58,0,0,1-2.43-2,6.73,6.73,0,0,1-.16-2.36c.77-6.57,12.39-6.85,12.39-6.85,9.59-1.37,26-12.33,26-12.33s7.93-5.94,16.44-8.19c3.74-1,7.6-1.29,11,0l1.37.6c3.59,1.52,13.28,5.28,17.51,3.59,3,4.37,3.15,20.3,3.09,27A3,3,0,0,1,588.83,655.82Z" fill="#07183b"/><path d="M588.83,655.82l-82.14-2.4a2.58,2.58,0,0,1-2.43-2,6.73,6.73,0,0,1-.16-2.36h30.71a29.91,29.91,0,0,0,8.75-1.39c10.9-3.38,27.41-4,32.8-4.07a11.43,11.43,0,0,0,4.41-.89c4-1.73,4-4.24,3.19-6.13a7.61,7.61,0,0,0-3-3.38c-9.82-6.48-11.09-11.54-11.09-11.54l1.37.6c3.59,1.52,13.28,5.28,17.51,3.59,3,4.37,3.15,20.3,3.09,27A3,3,0,0,1,588.83,655.82Z" opacity="0.2"/><path d="M262.34,202.43l31.1-8.65L308.15,211,345.7,362.92s-18.8,7.44-22,7-59-5.87-59-5.87Z" fill="#e6e6e6" stroke="red" stroke-miterlimit="10" stroke-width="0.25"/><path d="M302.76,418.89l-16.44,65.77a264.76,264.76,0,0,1-9.84,40l0,0a516.8,516.8,0,0,1-24.16,60.82,5.11,5.11,0,0,0-.33,1.05c-2.71,17.09-4.81,25.77-5.92,29.65a3.82,3.82,0,0,1-3.38,2.79c-3,.28-6.49.9-7.84,1.14a3.78,3.78,0,0,0-1.08.39c-7,3.71-19.11,4.78-25.47,5.08a3.88,3.88,0,0,1-4-4.06c.07-1.56.16-3.12.25-4.67,3.14-51.57,21.54-99.38,21.54-99.38,2.44-12.78,5.14-20.43,7.4-25a56.41,56.41,0,0,0,5.66-22.44l2.15-47.7s40.14-16.64,52.19-25.84C293.44,396.58,306.87,390.12,302.76,418.89Z" fill="#07183b"/><path d="M345.37,404.82l-1.51,88.06c0,34.25-5.34,37.18-5.34,37.18-4,12.54-.14,76.53-.14,76.53a30.25,30.25,0,0,1,.07,4.89h0s-28.83-.78-34.31-22.7c0,0-6.71-11.15-3.36-36.4,0,0-2.12-24.9-6.23-34a100.58,100.58,0,0,1,6.23-49S318.63,406.3,345.37,404.82Z" fill="#07183b"/><path d="M300.77,469.39a100.58,100.58,0,0,0-6.23,49c4.11,9.08,6.23,34,6.23,34-3.35,25.25,3.36,36.4,3.36,36.4,5.48,21.92,34.31,22.7,34.31,22.7h0v0c-.52,6.57-3.74,7.23-6,6.83a7.8,7.8,0,0,1-2.28-.78c-13.7-5.48-21.92,6.85-21.92,6.85a13.36,13.36,0,0,1-1.37.62c-7.65,3-8.9-4.15-8.79-9.76A73.88,73.88,0,0,0,297,601.73c-2.76-16.69-3.56-44.27-3.56-44.27-1.09-42.26-7.12-72.8-7.12-72.8l16.44-65.77c4.11-28.77-9.32-22.31-9.32-22.31-12.05,9.2-52.19,25.84-52.19,25.84l.68-15.29,52.58-54.78c17.8,10.19,48-4.7,48-4.7l3.21,37.6-.33,19.57C318.63,406.3,300.77,469.39,300.77,469.39Z" fill="#07183b"/><path d="M300.77,469.39a100.58,100.58,0,0,0-6.23,49c4.11,9.08,6.23,34,6.23,34-3.35,25.25,3.36,36.4,3.36,36.4,5.48,21.92,34.31,22.7,34.31,22.7h0v0c-.52,6.57-3.74,7.23-6,6.83a7.8,7.8,0,0,1-2.28-.78c-13.7-5.48-21.92,6.85-21.92,6.85a13.36,13.36,0,0,1-1.37.62c-7.65,3-8.9-4.15-8.79-9.76A73.88,73.88,0,0,0,297,601.73c-2.76-16.69-3.56-44.27-3.56-44.27-1.09-42.26-7.12-72.8-7.12-72.8l16.44-65.77c4.11-28.77-9.32-22.31-9.32-22.31-12.05,9.2-52.19,25.84-52.19,25.84l.68-15.29,52.58-54.78c17.8,10.19,48-4.7,48-4.7l3.21,37.6-.33,19.57C318.63,406.3,300.77,469.39,300.77,469.39Z" opacity="0.2"/><path d="M258.76,167.93s.16,8.47-1.21,11.21c0,0,7.72,3.67,9.34-7.07l-.52-1.1S264.08,173.17,258.76,167.93Z" fill="#07183b"/><path d="M266.89,172.07s3,15.21-4.55,22.78c0,0,6.17,7.58,8.91,13.06,0,0,30.14,8.22,23.29-9.59l-2.36-9.71S277.6,193.77,266.89,172.07Z" fill="#f9b499"/><path d="M266.89,172.07s1.12,4.68,0,13.41c0,0,14.72,8.48,25.29,3.13C292.18,188.61,277.6,193.77,266.89,172.07Z" fill="#f7a48b"/><path d="M294.54,350.39c0,17.37-3.6,29.57-9.1,38.08-17.45,27-53.92,16.72-53.92,16.72V302.44l-12.33-52.06c-5.71-32,6.66-40.16,10.95-42a45.41,45.41,0,0,0,5-2.56l6.25-3.62,2.24-1.3,3.28-1.91a47.82,47.82,0,0,0,8.88-6.31c3.84-3.63,6.6,2.16,6.6,2.16,3.43,3.39,8.91,13.06,8.91,13.06a91.84,91.84,0,0,1,5.62,11.75c7.7,19.06,12.52,44,14.78,57.67,1,6.16,1.52,10,1.52,10Z" fill="#1f3e82"/><path d="M358.06,385.25S337,395.6,332.9,358.61c0,0-5.75-37.78-9.62-62.47-1.12-7.19-2.09-13.28-2.71-17,0,0-3.57-16.28-8.49-34.33-.78-2.88-1.61-5.81-2.44-8.72-4.45-15.45-9.61-30.49-14.09-36.32l-2.11-6s8.39,1.62,22.13,11.15c.74.51,1.49,1,2.26,1.61a33.78,33.78,0,0,1,17.81,24.66s3.43,9.12,7.07,23.37v0c.23.91.47,1.84.7,2.8v.05a272.91,272.91,0,0,1,7.29,45Z" fill="#1f3e82"/><path d="M294.54,350.39c0,17.37-3.6,29.57-9.1,38.08h0c-.88-20.84-25.14-53.15-25.14-53.15C243.85,314.77,237,273.67,237,273.67l39.73-16.44c-6.85-31.51-35.39-55-35.39-55l2.24-1.3,33.29,18.75c7.7,19.06,12.52,44,14.78,57.67,1,6.16,1.52,10,1.52,10Z" opacity="0.2"/><path d="M239.31,277.33s14.24,39.42,28.69,45.12a51,51,0,0,1,4.75,2l17.33,9-20.28-7.07c-1-.36-2.06-.68-3.11-1-1.77-.51-5.85-2.14-10.07-6.88a30.9,30.9,0,0,1-5.8-9.89Z" opacity="0.2"/><path d="M358.06,385.25S337,395.6,332.9,358.61c0,0-5.75-37.78-9.62-62.47-1.12-7.19-2.09-13.28-2.71-17,0,0-3.57-16.28-8.49-34.33-.78-2.88-1.61-5.81-2.44-8.72l5.93-31.17s10.36,56,11.78,92.52c0,0,1.71,18.88,8.32,24.58a4.62,4.62,0,0,0,7.56-2.7c1.56-8.85,4.65-33-.74-65.13,0,0,.07.13.22.37v0c.23.91.47,1.84.7,2.8v.05a272.91,272.91,0,0,1,7.29,45Z" opacity="0.2"/><path d="M276.46,524.73a516.8,516.8,0,0,1-24.16,60.82,5.11,5.11,0,0,0-.33,1.05c-2.71,17.09-4.81,25.77-5.92,29.65a3.82,3.82,0,0,1-3.38,2.79c-3,.28-6.49.9-7.84,1.14a3.78,3.78,0,0,0-1.08.39c-7,3.71-19.11,4.78-25.47,5.08a3.88,3.88,0,0,1-4-4.06c.07-1.56.16-3.12.25-4.67,31.9,3.48,43.46-35,43.46-35Z" opacity="0.2"/><path d="M377.61,645c-11.42,2.24-33.68,2-51.65,1.4-15.18-.53-27.31-1.4-27.31-1.4-2.74-13.7,8.22-19.22,8.22-19.22l25.57-7.4a3.77,3.77,0,0,0,3.86-1,4.5,4.5,0,0,1,4.15,2.67,6.13,6.13,0,0,1,.51,1.12c8.05,10.43,28.93,17,28.93,17C376.74,640.84,377.61,645,377.61,645Z" fill="#1f3e82"/><path d="M326,646.35c-15.18-.53-27.31-1.4-27.31-1.4-2.74-13.7,8.22-19.22,8.22-19.22l25.57-7.4a3.77,3.77,0,0,0,3.86-1,4.5,4.5,0,0,1,4.15,2.67l-15.77,8.49C313.72,636.73,326,646.35,326,646.35Z" opacity="0.2"/><path d="M377.61,645c-.51,6.85-6.31,6.85-6.31,6.85H308.24c-11,0-9.59-6.85-9.59-6.85s12.13.87,27.31,1.4C343.93,647,366.19,647.19,377.61,645Z" fill="#07183b"/><path d="M279,646.32c-.5,6.85-6.3,6.85-6.3,6.85H209.6c-11,0-9.59-6.85-9.59-6.85s12.12.87,27.3,1.4C245.29,648.36,267.55,648.56,279,646.32Z" fill="#07183b"/><path d="M326.67,347.65l7.18,2.3c11.9,3.66,19.22,0,19.22,0,7.84,5,12.77-2.3,12.77-2.3,8.27,4.11,8.72-.25,8.44-2.69a2.66,2.66,0,0,0-1.42-2,36.71,36.71,0,0,1-11.19-9c-5.48-4.11-3.61-12.13-3.61-12.13,3.23-10.76,0-11.33,0-11.33l-14.2,13.87c-5.48,4.11-15.37,2.28-15.37,2.28l-1.07,18.27A9.69,9.69,0,0,1,326.67,347.65Z" fill="#f9b499"/><path d="M328.49,326.64l4.11.39s-.86,18.7,4.52,23.77a109,109,0,0,1-10.45-3.15,6.62,6.62,0,0,0,.75-2.74Z" fill="#f7a48b"/><path d="M350.5,347.65a2.46,2.46,0,0,1,2.57,2.3,2.46,2.46,0,0,1-2.57-2.3Z" fill="#f7a48b"/><path d="M358.93,343.54a28.67,28.67,0,0,1,5.17,3.1,12,12,0,0,0,1.74,1,3.26,3.26,0,0,1-2.18,0,8.13,8.13,0,0,1-4.73-4.07Z" fill="#f7a48b"/><path d="M389.07,335.32c-6.85,5.48-16.22,7.63-16.22,7.63-8-4.71-11.18-9-11.18-9-4.11-2.74-3.92-9.36-3.92-9.36-3.74-1-6-2.53-7.24-4a6.86,6.86,0,0,1-1.91-4.43H385C383.59,325.73,389.07,335.32,389.07,335.32Z" fill="#f9b499"/><path d="M389.07,335.32c-6.85,5.48-16.22,7.63-16.22,7.63-8-4.71-11.18-9-11.18-9-4.11-2.74-3.92-9.36-3.92-9.36-3.74-1-6-2.53-7.24-4,0,0,22.12,12,29,5.16a23.34,23.34,0,0,0,5.48-9.59C383.59,325.73,389.07,335.32,389.07,335.32Z" fill="#f7a48b"/><path d="M582.25,305.18l-18.44,24.37v0L552.11,345l-8.22,10.86s-4.11,5.48-13.7-4.11a25,25,0,0,1-5.71-6.16c-1.47-2.45-2.07-5.24.23-7.54l4.11-5.48s-30.14,0-39.73-6.85c0,0-9.48,3.17-13.44.48-1.26-.85-2-2.29-1.63-4.59a84.57,84.57,0,0,1,1.37-12.33l0,0c-.44.49-13,14.3-59.88,22.48l-.25,0c-7.75,1.34-16.44,2.53-26.17,3.49,0,0-5.48-6.85-4.11-19.18,0,0-2.54-5.81,11.75-5.64,0,0,41.69-8.06,59.5-39.57l15.56-22.82a34.76,34.76,0,0,0,5.74-15.05c1.12-8.42,3.8-21.52,9.95-27.81a11.75,11.75,0,0,1,1.63-1.45,68.13,68.13,0,0,0,4.11-8.22,10.81,10.81,0,0,1,9.59-6.85s-1.29,7.67-5.07,13.12a.93.93,0,0,0-.12.19,30.55,30.55,0,0,1,8.45-7.12,26.68,26.68,0,0,1,10.44-3.45s15.07-2.74,19.18-5.48c0,0,4.11-2.74,8.22,4.11,0,0,2.3,3.07,4.62,6.34.76,1.1,1.54,2.22,2.23,3.25,0,0,5.48,6.85,12.33,26,0,0,4.11,11,13.7,28.77l11,21.92S596,286,582.25,305.18Z" fill="#07183b"/><path d="M475.39,309.29l0,0c-.44.49-13,14.3-59.88,22.48,42.43-7.88,61.27-91,61.27-91-1.13,23.64-1.36,39-1.37,48v20.55Z" opacity="0.2"/><path d="M550.74,199.69c-16.44-2.74-34.25,9.59-34.25,9.59-12.15,11.05-13.62,2.16-13.73-1.7a3.54,3.54,0,0,0-2-3.17c-11.06-5-17.17,58.3-17.17,58.3-2.74-13.7,3.85-45.61,3.85-45.61a33.66,33.66,0,0,0,0-11.85,11.75,11.75,0,0,1,1.63-1.45,68.13,68.13,0,0,0,4.11-8.22,10.81,10.81,0,0,1,9.59-6.85s-1.29,7.67-5.07,13.12a.93.93,0,0,0-.12.19,30.55,30.55,0,0,1,8.45-7.12,26.68,26.68,0,0,1,10.44-3.45s15.07-2.74,19.18-5.48c0,0,4.11-2.74,8.22,4.11,0,0,2.3,3.07,4.62,6.34C549.27,197.54,550.05,198.66,550.74,199.69Z" opacity="0.2"/><path d="M547.12,295.76a56.45,56.45,0,0,0-3.23,9.42l-15.07,27.4s-30.14,0-39.73-6.85c0,0-16.44,5.48-15.07-4.11,0,0,21.44-5.19,27.41-15.26a7,7,0,0,0-2.14-9.18c-3.28-2.32-6.41-5.7,3.5-5.7,0,0,20.08,5.08,24.43-16,0,0,3.87-18.68,0-28.75.53.83,17.73,27.4,21.28,34.62C548.51,281.4,554.45,285,547.12,295.76Z" opacity="0.2"/><path d="M563.8,329.57l-19.91,26.3s-4.11,5.48-13.7-4.11a25,25,0,0,1-5.71-6.16S548.09,344.32,563.8,329.57Z" opacity="0.2"/><path d="M590.47,624.4a3,3,0,0,1-1.67,1.45c-4.23,1.69-13.92-2.07-17.51-3.59l-1.37-.6c-8.22-5.48-11-2.74-11-2.74-13.7,5.48-12.33-4.51-12.33-4.51V584.67c-8.22-23.29-21.92-43.84-21.92-43.84,0,24.66-5.48,32.54-5.48,32.54v51c-.08.14-.17.26-.25.4a25.74,25.74,0,0,1-3,4,13.69,13.69,0,0,1-8.77,4.74c-8.9.92-17.73-8.15-22.11-13.52-1.81-2.22-2.86-3.8-2.86-3.8l-1.37-52.06c-5.48-38.36-6.94-151.73-6.94-151.73-1.45-39.38,1.72-52,1.72-52V326.21c4,2.69,13.44-.48,13.44-.48,9.59,6.85,39.73,6.85,39.73,6.85l-4.11,5.48c-2.3,2.3-1.7,5.09-.23,7.54a25,25,0,0,0,5.71,6.16c9.59,9.59,13.7,4.11,13.7,4.11L552.11,345a50.83,50.83,0,0,1,2.4,11.37c1.52,14.69-2.17,28.87-2.17,28.87-5.26,28-.23,63.79-.23,63.79a107.93,107.93,0,0,1,4.11,27.4c0,11,2.74,12.33,2.74,12.33a52,52,0,0,1,8.22,26l2.74,8.22C585,565.49,590.47,624.4,590.47,624.4Z" fill="#1f3e82"/><path d="M554.51,356.38c-11.29,1.86-16.39,17.11-16.39,17.11-29.06,2.55-32.59-14.88-32.59-14.88-5.85-13.64-21.39-19-29.88-20.9v-11.5c4,2.69,13.44-.48,13.44-.48,9.59,6.85,39.73,6.85,39.73,6.85l-4.11,5.48c-2.3,2.3-1.7,5.09-.23,7.54a25,25,0,0,0,5.71,6.16c9.59,9.59,13.7,4.11,13.7,4.11L552.11,345A50.83,50.83,0,0,1,554.51,356.38Z" opacity="0.2"/><path d="M484.14,386.58l14.54,57.21s1.37,3.88,5.48,28.54c0,0,6.85,45.21,20.55,68.5" fill="none" stroke="red" stroke-miterlimit="10" stroke-width="0.25"/><path d="M524.71,540.83c0,24.66-5.48,32.54-5.48,32.54v27.32c-4.11-10-19.18-53-19.18-53-13.7-37-14.92-157.23-14.92-157.23,2.57,5.21,16.85,67.66,19.85,80.82.37,1.62.62,3.25.85,4.89C512.38,523,524.71,540.83,524.71,540.83Z" opacity="0.2"/><path d="M569.92,621.66c-3.36-1.26-7.22-1-11,0h0v-2.76S561.7,616.18,569.92,621.66Z" fill="#f9b499"/><path d="M517.34,655.83l-84.42-2.66a5.5,5.5,0,0,1-1.25-4.07c.27-1.85,1.9-4,7-5.55a75,75,0,0,0,14.18-5.85L485.1,620c4.38,5.37,13.21,14.44,22.11,13.52a13.69,13.69,0,0,0,8.77-4.74C516.06,629.48,518.19,650.35,517.34,655.83Z" fill="#07183b"/><path d="M517.34,655.83l-84.42-2.66a5.5,5.5,0,0,1-1.25-4.07c11.63.09,55.69-.63,75.54-15.59h0a13.69,13.69,0,0,0,8.77-4.74C516.06,629.48,518.19,650.35,517.34,655.83Z" opacity="0.2"/><path d="M535.67,186c-2.66,1.78-9.93,3.55-14.72,4.57-2.6.56-4.46.91-4.46.91A28.56,28.56,0,0,0,497.62,202a38.07,38.07,0,0,0,5.17-13.27c1.37-1.37,1.6-9.24,1.6-9.24l16.21-22.27,8.6-2.74,4.8,13,1.44,3.9Z" fill="#f9b499"/><path d="M504.39,179.49s.53,1.3-.54,6a21.43,21.43,0,0,0,12.78-15.2S511,177.77,504.39,179.49Z" fill="#f7a48b"/><path d="M535.67,186c-2.66,1.78-9.93,3.55-14.72,4.57,1.29-1.7,5.75-4.29,7.87-5.47a10.24,10.24,0,0,0,2.75-2.14c2.91-3.31.5-5.1.5-5.1-3.62-2.67-4.2-9.33-4.2-9.33l6.13-1,1.44,3.9Z" fill="#f7a48b"/><path d="M291.65,277.33c-16.29-51.61-48.07-76.42-48.07-76.42l3.28-1.91a47.82,47.82,0,0,0,8.88-6.31c3.84-3.63,6.6,2.16,6.6,2.16,3.43,3.39,8.91,13.06,8.91,13.06C282.27,226.94,288.88,260.59,291.65,277.33Z" fill="#1f3e82"/><path d="M291.65,277.33c-16.29-51.61-48.07-76.42-48.07-76.42l3.28-1.91a47.82,47.82,0,0,0,8.88-6.31c3.84-3.63,6.6,2.16,6.6,2.16,3.43,3.39,8.91,13.06,8.91,13.06C282.27,226.94,288.88,260.59,291.65,277.33Z" fill="#fff" opacity="0.3"/><path d="M323.28,296.14c-1.12-7.19-2.09-13.28-2.71-17,0,0-14.41-65.57-25-79.37l-2.11-6s8.39,1.62,22.13,11.15C315.57,204.93,326,267.93,323.28,296.14Z" fill="#1f3e82"/><path d="M323.28,296.14c-1.12-7.19-2.09-13.28-2.71-17,0,0-14.41-65.57-25-79.37l-2.11-6s8.39,1.62,22.13,11.15C315.57,204.93,326,267.93,323.28,296.14Z" fill="#fff" opacity="0.3"/><path d="M237,271.37s17.81,48.88,32.88,51.62l38.71,20.06s17.46,14.19,18.83,1.86L328.79,323s-23.59-11.47-37.14-20.8c0,0-4.58-6.15-9-3.81a.22.22,0,0,1-.3-.31c1.39-2,3.61-6.22,2-11,0,0-11.24-32.5-11.52-42.15" fill="#1f3e82"/><path d="M274.47,254.2c2.64,7.84,5.33,16.63,7.83,24.57.88,2.72,1.73,5.45,2.73,8.11a9.37,9.37,0,0,1,.2,6,19.42,19.42,0,0,1-2.46,5.38l-.51-.64c3.77-.91,7.43,1.44,9.39,4.53-2.14-2.63-5.68-4.67-9.12-3.7l-1,.31c1.55-2.7,3-5.7,2.89-8.87a6.32,6.32,0,0,0-.59-2.58,263.58,263.58,0,0,1-9.33-33.15Z" fill="#1f3e82"/><path d="M274.47,254.2c2.64,7.84,5.33,16.63,7.83,24.57.88,2.72,1.73,5.45,2.73,8.11a9.37,9.37,0,0,1,.2,6,19.42,19.42,0,0,1-2.46,5.38l-.51-.64c3.77-.91,7.43,1.44,9.39,4.53-2.14-2.63-5.68-4.67-9.12-3.7l-1,.31c1.55-2.7,3-5.7,2.89-8.87a6.32,6.32,0,0,0-.59-2.58,263.58,263.58,0,0,1-9.33-33.15Z" opacity="0.3"/><ellipse cx="284.42" cy="155.9" rx="21.92" ry="33.64" transform="translate(-25.28 59.54) rotate(-11.45)" fill="#f9b499"/><path d="M257.34,159.11s-12.12-11.48-2.53-22.44c0,0-.53-2.74-3.69,0,0,0-.42-5.48,7.8-2.74,0,0-1.37-11,11-15.07,0,0-2.74,4.11,2.74,2.74,0,0,14.76-7.88,25.1-6.94a8.32,8.32,0,0,1,6.73,4.62c2.95,6,7.77,18.59-2.81,19.84a78.28,78.28,0,0,0-5.16-7.86s2.11,7.9-21.38,8.14a3.92,3.92,0,0,0-2.92,1.28c-.89,1-1.64,2.75-.93,5.58,0,0,1.37,4.11-2.74,5.48,0,0,2.25,10.29-.24,14Z" fill="#07183b"/><ellipse cx="262.34" cy="164.75" rx="4.8" ry="7.54" transform="translate(-43.24 215.59) rotate(-41.57)" fill="#f9b499"/><path d="M548.51,196.44c-17.31-1.88-33.39,10.69-33.39,10.69-11,8.81-9.07,0-9.07,0V194.92a26.68,26.68,0,0,1,10.44-3.45s15.07-2.74,19.18-5.48c0,0,4.11-2.74,8.22,4.11C543.89,190.1,546.19,193.17,548.51,196.44Z" fill="#1f3e82"/><path d="M502.79,188.73s-1.29,7.67-5.07,13.12a.93.93,0,0,0-.12.19l-.11.15s-6.18,5.87-10,3.06a11.75,11.75,0,0,1,1.63-1.45,68.13,68.13,0,0,0,4.11-8.22A10.81,10.81,0,0,1,502.79,188.73Z" fill="#1f3e82"/><ellipse cx="505.03" cy="149.44" rx="31.43" ry="19.93" transform="translate(224.18 594.99) rotate(-74.26)" fill="#f9b499"/><path d="M548.51,138.1a118.27,118.27,0,0,1-4.62,26v9.59s-4.11,4.11-6.85-2.74a11.9,11.9,0,0,1-1.6.5c-1.57.37-4,.65-5.77-.6-1.47-1-2.54-3-2.45-6.66,0,0-2.83-15-4.05-15.07l-6.33,11s-5.83-.09-3.09-12.42c0,0,2.85-8.54.85-13.83a5.39,5.39,0,0,0-7.17-2.87c-2.68,1.1-7.31,2.27-10.93-.76h0a9.89,9.89,0,0,1-2.19-2.62s-4.28,5.13-5.43,8.5c0,0-4.66-12.76,2.74-20a2.57,2.57,0,0,1,3-.41c2.15,1.14,6.88,2.67,14.4.22.79-.26,1.63-.58,2.49-.93l.47-.19s12.77-6.86,19.62,2.74C531.56,117.49,550.38,114.87,548.51,138.1Z" fill="#07183b"/><path d="M490.12,117.82s-5.56,6.63-1.24,18.22c0,0,2-5.39,3.86-6.49C492.74,129.55,488.42,126.38,490.12,117.82Z" opacity="0.2"/><path d="M530.19,160s-2.37,8-.52,10.86c-1.47-1-2.54-3-2.45-6.66,0,0-2.83-15-4.05-15.07l-6.33,11s-5.83-.09-3.09-12.42c0,0,2.85-8.54.85-13.83a5.39,5.39,0,0,0-7.17-2.87c-2.68,1.1-7.31,2.27-10.93-.76h0a114.14,114.14,0,0,0,20-3.24s3.09,5,1.55,17.64c0,0-.18,4.44,5.3,3.07C523.34,147.63,532.93,144.89,530.19,160Z" opacity="0.2"/><path d="M543.89,173.66s-4.11,4.11-6.85-2.74a11.9,11.9,0,0,1-1.6.5s-1.14-10.09,3-16.94C538.41,154.48,537,175,543.89,173.66Z" opacity="0.2"/><ellipse cx="521.97" cy="156.53" rx="7.54" ry="5.48" transform="translate(283.62 646.57) rotate(-80.76)" fill="#f9b499"/><path d="M538.12,357.43l-3.82,14.88c-20.55,0-24.42-9.82-24.42-9.82l2.48-8.58a23,23,0,0,1-13.68-1,2,2,0,0,1-.21-3.67c4.41-2.46,13.89-3.64,13.89-3.64a23.6,23.6,0,0,0,11.16-2.06C527.8,351.76,538.12,357.43,538.12,357.43Z" fill="#f9b499"/><path d="M538.12,357.43l-3.82,14.88c-20.55,0-24.42-9.82-24.42-9.82l2.48-8.58a23,23,0,0,1-13.68-1s11.41,1.5,15.29-1.2c0,0-1.59,11,8,13.75,0,0,8.39,2.1,8.65-2a3.44,3.44,0,0,0-1.38-2.85c-2.44-1.93-8.67-7.73-8-16.2a21.18,21.18,0,0,0,2.33-.91C527.8,351.76,538.12,357.43,538.12,357.43Z" fill="#f7a48b"/><path d="M332.44,618.33c-7.32,10.37-25.57,7.4-25.57,7.4V625a13.36,13.36,0,0,0,1.37-.62s8.22-12.33,21.92-6.85A7.8,7.8,0,0,0,332.44,618.33Z" fill="#f9b499"/><path d="M206.24,625.16s-3.49,4.72,3.36,3.35c0,0,14.85-.88,21.12-6.6C230.72,621.91,218,625.93,206.24,625.16Z" fill="#f9b499"/></svg>